/* XPM */
static char *_b0b49bd736346cf88c8d86ceeda5223bDF1MFHiOduDLG22[] = {
/* columns rows colors chars-per-pixel */
"32 32 145 2 ",
"   c None",
".  c #413F48",
"X  c #4B3F49",
"o  c #543E49",
"O  c #663D4A",
"+  c #6B3C4A",
"@  c #354048",
"#  c #3A4048",
"$  c #4D4647",
"%  c #434149",
"&  c #504747",
"*  c #454D52",
"=  c #494F55",
"-  c #4A5057",
";  c #4E5459",
":  c #51575C",
">  c #53585D",
",  c #7D4B47",
"<  c #73484F",
"1  c #96623F",
"2  c #9B643E",
"3  c #AB7738",
"4  c #AC7938",
"5  c #835045",
"6  c #8D5943",
"7  c #925D43",
"8  c #916142",
"9  c #82686A",
"0  c #867375",
"q  c #AF8536",
"w  c #C39B25",
"e  c #C9A625",
"r  c #827F85",
"t  c #878687",
"y  c #878489",
"u  c #88868A",
"i  c #8C8B8C",
"p  c #8F8F90",
"a  c #908F91",
"s  c #959494",
"d  c #989797",
"f  c #999897",
"g  c #9D9D9B",
"h  c #9FA09D",
"j  c #A3A29E",
"k  c #A5A5A2",
"l  c #A8A7A4",
"z  c #A7A8A3",
"x  c #AAABA4",
"c  c #AFAEAA",
"v  c #AEB0A7",
"b  c #AEB2A9",
"n  c #B0B2A7",
"m  c #B2B5AA",
"M  c #BAB6AF",
"N  c #B5BAAD",
"B  c #B9BCAF",
"V  c #B7B6B0",
"C  c #B7BEB0",
"Z  c #BBBDB2",
"A  c #C0BFB7",
"S  c #BAC1B2",
"D  c #BBC2B2",
"F  c #BBC2B3",
"G  c #BBC3B3",
"H  c #BAC0B1",
"J  c #BEC0B3",
"K  c #BCC3B3",
"L  c #BCC4B4",
"P  c #BCC5B4",
"I  c #BDC5B5",
"U  c #BDC6B5",
"Y  c #BEC6B5",
"T  c #BDC6B6",
"R  c #BEC7B6",
"E  c #BEC6B6",
"W  c #BDC4B5",
"Q  c #BFC8B6",
"!  c #BEC8B6",
"~  c #C4C0B3",
"^  c #C0C3B8",
"/  c #C3C3BA",
"(  c #C3C7BA",
")  c #C4C5BA",
"_  c #C6C7BB",
"`  c #C7C7BB",
"'  c #C6C4BD",
"]  c #C5C7BC",
"[  c #C7C7BC",
"{  c #C7C7BE",
"}  c #C5C5BB",
"|  c #C3CBBB",
" . c #C7C9BD",
".. c #C7CBBE",
"X. c #C7CEBE",
"o. c #C8C9BD",
"O. c #C8C8BD",
"+. c #C9CABD",
"@. c #CAC9BF",
"#. c #CACAC0",
"$. c #CBCDC1",
"%. c #CDCDC1",
"&. c #CDCCC3",
"*. c #CDCEC2",
"=. c #CECDC4",
"-. c #CFCEC5",
";. c #CDCDC2",
":. c #D0CFC5",
">. c #CCD0C2",
",. c #CFD0C4",
"<. c #CED2C4",
"1. c #CFD2C4",
"2. c #D0D1C5",
"3. c #D0D0C6",
"4. c #D2D1C6",
"5. c #D2D2C6",
"6. c #D2D5C7",
"7. c #D2D4C7",
"8. c #D4D3C9",
"9. c #D4D4C8",
"0. c #D5D4CA",
"q. c #D6D5CB",
"w. c #D7D6CA",
"e. c #D6D6CB",
"r. c #D7D6CC",
"t. c #D3D6C8",
"y. c #D8D7CB",
"u. c #D8D7CC",
"i. c #D9D5C8",
"p. c #D7D9CB",
"a. c #D6D8CA",
"s. c #D8D8CC",
"d. c #D9D8CC",
"f. c #D8D9CC",
"g. c #DBDBCF",
"h. c #DDDCD0",
"j. c #DDDCD1",
"k. c #DEDDD1",
"l. c #DEDED2",
"z. c #DFDED2",
"x. c #DFDED2",
"c. c #E0DED2",
"v. c #E0DFD3",
"b. c #E0DFD3",
"n. c #E1E0D4",
/* pixels */
"c c l f s i s x c g x d p c l.l.l.l.l.Z s g x x g x f s s l c c ",
"r.r.$.x j N C m n x g f s y d x x d s i r f c n C N x m 8.w.r.u.",
"l.l.l._ N U U m c x x s f x x x x g s j x f x n U U Z _ l.l.l.l.",
"l.l.l.O.z v m t > * * * * * * * * * * * * * = i n v k _ l.l.l.c.",
"y.w.w.Z x m k : @ @ @ @ @ @ @ @ @ @ @ @ @ @ @ > g N v x  .w.y.w.",
"Z m k c m S x ; @ @ @ @ @ @ @ @ @ @ @ @ @ @ @ : g J m v k n Z c ",
"c.l.p.| B S x ; @ @ @ @ @ @ @ @ @ @ @ @ @ @ @ : g J N Q S <.l.l.",
"l.l.l.>.m N j ; @ @ @ @ @ @ @ @ @ @ @ @ @ @ @ ; s N m U U 6.l.l.",
"c.l.l./ x x d - @ @ @ @ @ @ @ @ @ @ @ @ @ @ @ ; a x x m S 5.l.l.",
"&.#.' m m N z ; @ @ @ @ @ @ @ @ @ @ @ @ @ @ @ : g B m x b Z &.' ",
"5.:.&.( U U x ; @ @ @ @ @ @ @ @ @ @ @ @ @ @ @ : g Q U Z / 5.5.-.",
"l.l.c.<.S U x ; @ @ @ @ @ @ @ @ @ @ @ @ @ @ @ : h U S X.s.l.l.l.",
"l.l.l.O.x k a = @ @ @ @ @ @ @ @ @ @ @ @ @ @ @ = u k z O.l.l.l.l.",
"c.c.p.N x c g ; @ @ @ @ @ @ @ @ @ @ @ @ @ @ @ ; s c x A c.c.c.c.",
"B m l c Z U x ; @ @ @ @ @ @ @ @ @ @ @ @ @ @ @ : g U S c k m B c ",
"s.s.r._ Z U x ; @ @ @ @ @ @ @ @ @ @ @ @ @ @ @ : g Q S N  .s.s.u.",
"l.l.l.O.n N k ; @ @ @ @ @ @ @ @ @ @ @ @ @ @ @ : f C n  .l.l.l.c.",
"l.l.l._ x j i = @ @ @ @ @ @ @ @ @ @ @ @ @ @ @ = y j k ' l.l.l.l.",
"w.5.' x v N k ; @ @ @ @ @ @ @ @ @ @ @ @ @ @ @ : g B m V -.5.w.5.",
"J V c n Z U x ; @ @ @ @ @ @ @ @ @ @ @ @ @ @ @ : g Q S c x V Z m ",
"c.c.n.O.m m g - @ @ @ @ @ @ @ @ @ @ @ @ @ @ @ ; s m m J p.c.c.c.",
"l.l.s.J x x s - @ @ @ @ @ @ @ @ @ @ @ @ @ @ @ - i x k _ l.l.l.l.",
"_ / m x m U x ; @ @ @ @ @ @ @ @ @ @ @ @ @ @ @ : h U N n Z / _ Z ",
"&.O.V v N U x ; @ @ @ @ @ @ @ @ @ @ @ @ @ @ @ : g U N m Z O.&.' ",
"l.l.6.b c N k ; @ @ @ @ @ @ @ @ @ @ @ @ @ @ @ : g N v Z s.l.l.l.",
"l.l.t.b j v d = @ @ @ @ @ @ @ @ @ @ @ @ @ @ @ - i n j Z l.l.l.l.",
"l.l.&.x b S z ; @ @ @ @ @ @ @ @ @ @ @ @ @ @ @ : g U N b <.l.l.l.",
"Z m x x m m k ; @ @ @ # # X O O O O O # @ @ @ : f m m x x m Z n ",
"l.l.l._ k 9 < % @ @ # O O O + + + + o # # @ @ % < 9 j m _ l.l.l.",
"y.y.y.M 0 7 2 $ @ @ @ X O O O O O O O O O # @ & 1 7 9 j ~ y.y.y.",
"3 4 4 8 6 , + . @ @ @ @ @ @ @ @ @ @ @ @ @ @ @ . O , 7 8 4 4 4 3 ",
"w w w q 5                                           , q e w w w "
};
