/* XPM */
static char *a425e20aa57a4020e8cbd72436c64ccan7KjHKPoK81nPLGo[] = {
/* columns rows colors chars-per-pixel */
"32 32 189 2 ",
"   c #2A233A",
".  c #312439",
"X  c #383449",
"o  c #383650",
"O  c #48374C",
"+  c #413E4F",
"@  c #553246",
"#  c #413F56",
"$  c #6C3D43",
"%  c #3E4159",
"&  c #3A496B",
"*  c #434256",
"=  c #49465B",
"-  c #4F4958",
";  c #514451",
":  c #544F5D",
">  c #55505D",
",  c #6A4849",
"<  c #70524F",
"1  c #7B5953",
"2  c #464461",
"3  c #4F556B",
"4  c #545464",
"5  c #5C5364",
"6  c #5C5A67",
"7  c #53546D",
"8  c #595A6B",
"9  c #425272",
"0  c #565F77",
"q  c #595F74",
"w  c #5C6172",
"e  c #5B637A",
"r  c #65646E",
"t  c #68676E",
"y  c #636373",
"u  c #6A6772",
"i  c #676976",
"p  c #6B6C73",
"a  c #66677B",
"s  c #676C7E",
"d  c #6C6C7B",
"f  c #706C7A",
"g  c #6D707C",
"h  c #71747D",
"j  c #76777C",
"k  c #8B595A",
"l  c #836459",
"z  c #856658",
"x  c #88615A",
"c  c #8D7166",
"v  c #96786C",
"b  c #837777",
"n  c #957872",
"m  c #A36867",
"M  c #A57A6B",
"N  c #A68877",
"B  c #BA8B7C",
"V  c #B69B7E",
"C  c #5E6981",
"Z  c #5B708E",
"A  c #56769A",
"S  c #636E82",
"D  c #6B7284",
"F  c #697589",
"G  c #6E7B8D",
"H  c #727582",
"J  c #717882",
"K  c #7C7E84",
"L  c #757A89",
"P  c #797A8A",
"I  c #667A97",
"U  c #737F93",
"Y  c #807882",
"T  c #7E8287",
"R  c #7C828D",
"E  c #748095",
"W  c #7A8293",
"Q  c #7B889C",
"!  c #7E8FA5",
"~  c #7592AE",
"^  c #7F9CB4",
"/  c #83858B",
"(  c #88858B",
")  c #89898C",
"_  c #948A85",
"`  c #988B8D",
"'  c #8D8E95",
"]  c #838D9C",
"[  c #988992",
"{  c #8A9094",
"}  c #8C929C",
"|  c #929494",
" . c #95979C",
".. c #939999",
"X. c #9A9C9F",
"o. c #A68084",
"O. c #A5928F",
"+. c #BB9B84",
"@. c #AB9F9E",
"#. c #B9A285",
"$. c #B2A39C",
"%. c #8A94A5",
"&. c #8695A9",
"*. c #8C99AC",
"=. c #919BA7",
"-. c #9C9EA2",
";. c #969EAA",
":. c #819EB5",
">. c #8E9CB7",
",. c #A09EA0",
"<. c #9DA1A6",
"1. c #9AA3AD",
"2. c #96A3B5",
"3. c #9AA3B4",
"4. c #9DA8B6",
"5. c #95A6B9",
"6. c #97A8BF",
"7. c #9DACBA",
"8. c #A1A3A7",
"9. c #A7A5A5",
"0. c #A3A7AD",
"q. c #A5AAAD",
"w. c #ABACAE",
"e. c #B4B2AE",
"r. c #A3A7B5",
"t. c #A3AAB3",
"y. c #AAADB2",
"u. c #A1ADBA",
"i. c #A5B1B6",
"p. c #ABB1B5",
"a. c #ACB4BB",
"s. c #B2B4B5",
"d. c #B4BABC",
"f. c #B9BDBB",
"g. c #C69481",
"h. c #C9AF9F",
"j. c #D4A699",
"k. c #D2A9A2",
"l. c #CBB3A7",
"z. c #DAB5A1",
"x. c #B6C1BF",
"c. c #BEC0BC",
"v. c #C0C3BE",
"b. c #E7C0A7",
"n. c #EDC2A6",
"m. c #99B2C4",
"M. c #99B4C8",
"N. c #A6AFC9",
"B. c #A5B7C4",
"V. c #ADBAC3",
"C. c #A9B8C9",
"Z. c #B2BCC3",
"A. c #A6AFD1",
"S. c #A6B0D1",
"D. c #A9B4D1",
"F. c #AEBAD2",
"G. c #B1BFD3",
"H. c #B7C3C2",
"J. c #BBC2C3",
"K. c #B5C2CC",
"L. c #BAC4CB",
"P. c #BFCAC9",
"I. c #B4C3D4",
"U. c #B8C7D5",
"Y. c #BACBD5",
"T. c #BFCDD9",
"R. c #BFD0D7",
"E. c #C1C5C3",
"W. c #C6C9C4",
"Q. c #CACCC7",
"!. c #C5CBCC",
"~. c #CACECB",
"^. c #CED2CD",
"/. c #D2D4CD",
"(. c #D6D8CF",
"). c #C0CFD3",
"_. c #C5D4D4",
"`. c #CAD6D5",
"'. c #C4D5DA",
"]. c #C9D6D8",
"[. c #C7D8DB",
"{. c #CDDEDD",
"}. c #D5D9D2",
"|. c #D9DBD3",
" X c #D4DDD9",
".X c #CFE0DE",
"XX c #DDE2DD",
"oX c #CFE1E0",
"OX c #D0E1E0",
/* pixels */
"{.{.T.D..X{.{.{.U.{.{..X{.V.8.T K J } K.U.U.U.S.'.{.{.{.Y.[.{.{.",
"{.{.'.U.{.{.{.{.U.{.{..Xq.%.^.].B.m.:.] K.U.U.U.{..X.X{.Y.[.{.{.",
"{.{.'.Y.{.{.{.{.U.{.{._.} B.m.C.M.m.6.Z t.U.U.I.{..X.X{.Y.[.{.{.",
"{.{.'.Y.{.{.{.{.U.{.{.) 0 I I ~ ^ :.~ A R Y.U.S.'.{.{.{.U.'.{.{.",
"U.U.U.Y..X.X{.{.U.U.U.K.f @ k O * 2 & 9 ;.U.U.S.U.U.U.U.D.S.A.A.",
"{.{.[.Y.{.{.{.{.U.U.{.{._.$.+.B , g.l ; -.{.{.U.{.{.{.{.D.I.U.U.",
"{.{.'.Y.{.{.{.'.F.[.{..X| h.z.n.N M $ ,.OX.X{.U.{.{.{..XD.I.U.U.",
"{.{.'.U.{.{.{.'.S..X{.{.[.$.b.n.n @ Y [..X.X.XU.{.{.{..XD.I.U.U.",
"{.{.T.D..X{.{.'.S.{.{.{.{.U.O.x k m  .[.q.....{ ..x.{..XD.I.U.U.",
"U.U.I.D.U.U.U.U.S.S.S.S.S.S.L. .9.` d t q.f.f.f.f.0.' Y.D.S.S.S.",
"{.{.T.D.U.{.{.'.S.U.U.U.U.S._.<.t.<...* 3.}.}.}.}.d.K {.U.'.{.{.",
"{.{.'.G.'.{.{.'.S.Y.Y.Y.U.G.'.d.s.XX!.S h v.v.E.v.-.) oXY.'.{.{.",
"{.{.'.Y.{.{.{.'.D.U.U.U.U.U.Y.t.J.`.u.F 3 e q 5 F i _.{.Y.'.{.{.",
"{.{.[.Y..X{.{.{.Y.U.U.U.U.U.d.@.L.] Q G ] Z.;.q 5.} _..XY.[.{.{.",
"U.U.I.D.Y.Y.Y.U.S.Y.s.s.e.l.+.j.[ ! y 4 ;. X`.L.`.w.K.Y.D.I.Y.U.",
"[.[.'.U.Y.[.[.'.U.p.` b v j.k.o.&.G.3.= %.Z.V.V.V.} ).{.U.'.[.[.",
"{.{.[.U.'.{.{.{.U.} 7 u X.Y._.H L / h =.=.W R R R 8.{.{.Y.'.{.{.",
"{.{.[.Y.{.{.{.{.U.a.8 E.[.U.].b c v x q. X].].K._.[.{.{.Y.U.Y.{.",
"{.{.[.Y..X{.{.{.U.d.4 !.{.Y.]._ N v < d ' ) a.U.{.{.{..XY.[..X{.",
"Y.Y.I.D.Y.Y.Y.U.D.j y Y.Y.D.Y._ #.v .   X + | D.U.Y.Y.Y.D.I.Y.Y.",
"'.'.Y.I.'.'.'.'.G.X.1.1.'.G.)._ +.c K w 0.H._.G.'.'.'.'.I.Y.'.'.",
"{.{.'.Y._.e.H.J.9.d./ <.p.U.]._ +.z e *.<._.P.Z.d.f._..XY.'.{.{.",
"{.{.'.Y.j 3 ] W 8 <.y.d.q.a.]._ V z W y.t.-.s ] ] s 4 H.Y.'.{.{.",
"{.{.).i t d.}.W.p.D + s.d.y.q.b V z W E.i %.4.}.}.!.R > 6.I.Y.{.",
"R.Y.t D 0.E.^.w.1.4.L j F.a.%.( V l s.X.e =.y.s.^.~.t.' y N.F.R.",
"'._.i a./.d.0.t.J.|.a.% w.S.V.' N 1 / 6 1.}.s.t.p.a./.E.- 3.G.'.",
"{.{.i d.(.Q.%.E !.|.Z.* y.S.K.r 1 , U d.J.E.d.1.*.q.}.Q.: i.R.{.",
"{.{.y f./.d.w.w.!.}.a.= y.V.P 7 # o 7 + L q.W  .q.u.^.W.5 x.{.{.",
"{.{./ a q.!.}.(.s.B./ | Y.a.* = = * r.q.d p.p.}.(.H.t./ K '.{.{.",
"'.'.K.d y c././.p.J : J.U.L.y.P L u.N.Z.u r E././.Q.K ; 3.U.'.'.",
"Y.Y.U.N.g = E C o / U.U.U.U.U.U.U.U.S.Y.L.p = e e = t i.F.U.Y.Y.",
"{.{.2.>.*.E U U E 3.5.5.5.5.5.5.5.5.>.7.7.7.Q E U E 7.7.2.Y.{.{."
};
