/* XPM */
static char *ba1dea42044a42dfdbc66cd1ff1ee075dD0MOO0qZYvpFFxl[] = {
/* columns rows colors chars-per-pixel */
"32 32 35 1 ",
"  c #A5AFD1",
". c #A7B1D1",
"X c #A8B3D1",
"o c #AAB4D2",
"O c #ACB7D2",
"+ c #AEBAD2",
"@ c #AFBCD3",
"# c #B0BDD3",
"$ c #B1BDD4",
"% c #B1C0D3",
"& c #B4C3D3",
"* c #B3C1D4",
"= c #B4C3D4",
"- c #B6C6D4",
"; c #B8C7D5",
": c #B7C8D4",
"> c #B8C8D5",
", c #BCCBD7",
"< c #BBCCD6",
"1 c #BCCDD6",
"2 c #BFCED9",
"3 c #BFD0D7",
"4 c #BFD0D8",
"5 c #C0CED9",
"6 c #C3D2DA",
"7 c #C4D3DA",
"8 c #C3D4D9",
"9 c #C5D6DA",
"0 c #C7D8DB",
"q c #C8D9DB",
"w c #CADBDC",
"e c #CBDCDD",
"r c #CEDFDE",
"t c #CFE0DE",
"y c #D0E1DF",
/* pixels */
"rr2otrrw>rrrr>rrrr>><><.9ttt<9rr",
"rr9>rrrw>rrrr>rrrr>>>><;wtrr<0rr",
"rr9<rrrw>rrre%rrrr>>>><%wrrr10rr",
"rr9<rrrw>rrrw rrrr>>>><.9rrr<9rr",
">>><rrrw>>>>: >>>> >>>>.->>>X.  ",
"rr9<rrrw>>ere>rrrr>errr>wrrro%>>",
"rr9<rrr9+qrrr>rrrr>rttr>wrrto%>>",
"rr9;rrr9.trrr>rrrw>rttr>wrrto%>>",
"rr2otrr9.rrrr>rrq>>rrrr>wrrto%>>",
">>%X>>>-......>>>> >>>>.->>>X...",
"ee2X>ee7.>>>-.eeee-weer.-6er>6ww",
"rr6#9rr9.<<>>#9err>rrrr#40rr<9rr",
"rr9<rrr9o>>>>>1wrr>rrrr>wrrr<9rr",
"rr01trrw<<>>>>rrrr>rrrt>wrrt10rr",
">>*X<><-.>>>>.>>-X.>>><.->><X*>>",
"qq6-<qq9-wqq0=qq08=9qqw->3qw-6qq",
"rr9>6rrw>qrrr>rrrr&rrrr>39rr<8wr",
"rr9<rrrw>>err>rrrr wrrr>wrrr<>1r",
"rr01trrw>trrr>trrr>rrrt>wrrt10tr",
"11=o111>o111<o1111X>111o>111o=11",
"991*9996#9998#9999#8999#6999*199",
"rr9<rrrw>rrrr>rrrr>rrew:0rrr<9rr",
"rr9<rrrw>rrrr>rrrr>r9- .-6rt19rr",
"rr91trrw>trrw rtrr>r>o>>>>>..%1r",
"33-+333>O$$$$.$<>$o1*o><<>>--#@3",
"66>@666,...o+.+--+.1-#><>>>>>%#6",
"rr9<rrr9..X#>.>>>> w9<>>><><><3r",
"rr9<rtr9..>#X<>>>> wrr>><<<y19rr",
"rr9<rrr9.><>><>>>>.rtrr><6r<>9rr",
"66>#8661.>>><<><>>.6668@>16>#>66",
"11=X>11>o>>><<<<<>.1111.-<11+-11",
"rr5X>rrw>>>><<<<>>.rrrt.-6rt19rr"
};
