/* XPM */
static char *xpm_[] = {
/* columns rows colors chars-per-pixel */
"50 50 3 1 ",
"  c #A7B1D1",
". c #BACBD5",
"X c #CEDFDE",
/* pixels */
"XXXX  XXXXXX..XXXXXX..XXXXXX........  XXXXXX..XXXX",
"XXXX  XXXXXX..XXXXXX..XXXXXX........  XXXXXX..XXXX",
"XXXX..XXXXXX..XXXXXX..XXXXXX..........XXXXXX..XXXX",
"XXXX..XXXXXX..XXXXXX..XXXXXX..........XXXXXX..XXXX",
"XXXX..XXXXXX..XXXXXX  XXXXXX........  XXXXXX..XXXX",
"XXXX..XXXXXX..XXXXXX  XXXXXX........  XXXXXX..XXXX",
"......XXXXXX........  ......  ......  ......      ",
"......XXXXXX........  ......  ......  ......      ",
"XXXX..XXXXXX....XXXX..XXXXXX..XXXXXX..XXXXXX  ....",
"XXXX..XXXXXX....XXXX..XXXXXX..XXXXXX..XXXXXX  ....",
"XXXX..XXXXXX  XXXXXX..XXXXXX..XXXXXX..XXXXXX  ....",
"XXXX..XXXXXX  XXXXXX..XXXXXX..XXXXXX..XXXXXX  ....",
"XXXX  XXXXXX  XXXXXX..XXXX....XXXXXX..XXXXXX  ....",
"XXXX  XXXXXX  XXXXXX..XXXX....XXXXXX..XXXXXX  ....",
"....  ......          ......  ......  ......      ",
"....  ......          ......  ......  ......      ",
"XXXX  ..XXXX  ......  XXXXXX..XXXXXX  ..XXXX..XXXX",
"XXXX  ..XXXX  ......  XXXXXX..XXXXXX  ..XXXX..XXXX",
"XXXX..XXXXXX  ..........XXXX..XXXXXX..XXXXXX..XXXX",
"XXXX..XXXXXX  ..........XXXX..XXXXXX..XXXXXX..XXXX",
"XXXX..XXXXXX..........XXXXXX..XXXXXX..XXXXXX..XXXX",
"XXXX..XXXXXX..........XXXXXX..XXXXXX..XXXXXX..XXXX",
"....  ......  ......  ....    ......  ......  ....",
"....  ......  ......  ....    ......  ......  ....",
"XXXX....XXXX..XXXXXX..XXXXXX..XXXXXX....XXXX..XXXX",
"XXXX....XXXX..XXXXXX..XXXXXX..XXXXXX....XXXX..XXXX",
"XXXX..XXXXXX....XXXX..XXXXXX  XXXXXX..XXXXXX....XX",
"XXXX..XXXXXX....XXXX..XXXXXX  XXXXXX..XXXXXX....XX",
"XXXX..XXXXXX..XXXXXX..XXXXXX..XXXXXX..XXXXXX..XXXX",
"XXXX..XXXXXX..XXXXXX..XXXXXX..XXXXXX..XXXXXX..XXXX",
"....  ......  ......  ......  ......  ......  ....",
"....  ......  ......  ......  ......  ......  ....",
"XXXX..XXXXXX..XXXXXX..XXXXXX..XXXXXX..XXXXXX..XXXX",
"XXXX..XXXXXX..XXXXXX..XXXXXX..XXXXXX..XXXXXX..XXXX",
"XXXX..XXXXXX..XXXXXX..XXXXXX..XX..    ..XXXX..XXXX",
"XXXX..XXXXXX..XXXXXX..XXXXXX..XX..    ..XXXX..XXXX",
"XXXX..XXXXXX..XXXXXX  XXXXXX..XX  ........    ..XX",
"XXXX..XXXXXX..XXXXXX  XXXXXX..XX  ........    ..XX",
"....  ......            ..    ..  ............  ..",
"....  ......            ..    ..  ............  ..",
"XXXX..XXXXXX      ..  ......  XX................XX",
"XXXX..XXXXXX      ..  ......  XX................XX",
"XXXX..XXXXXX    ..  ........  XXXX........XX..XXXX",
"XXXX..XXXXXX    ..  ........  XXXX........XX..XXXX",
"XXXX..XXXXXX  ..............  XXXXXX....XX....XXXX",
"XXXX..XXXXXX  ..............  XXXXXX....XX....XXXX",
"....  ......  ..............  ......  ......  ....",
"....  ......  ..............  ......  ......  ....",
"XXXX  ..XXXX................  XXXXXX  ..XXXX..XXXX",
"XXXX  ..XXXX................  XXXXXX  ..XXXX..XXXX"
};
