/* XPM */
static char *_33bab435a8d41a0b22158ddc43a0ce4ASigRjMkWni14KRL[] = {
/* columns rows colors chars-per-pixel */
"32 32 188 2 ",
"   c #270000",
".  c #370000",
"X  c #461702",
"o  c #521D00",
"O  c #4F220E",
"+  c #4F2D1D",
"@  c #542B18",
"#  c #463A38",
"$  c #503E39",
"%  c #65382B",
"&  c #52413D",
"*  c #5D4239",
"=  c #78442B",
"-  c #6E4537",
";  c #744534",
":  c #774B36",
">  c #693E43",
",  c #5F4545",
"<  c #5E4C43",
"1  c #604F45",
"2  c #6B4B42",
"3  c #625147",
"4  c #6E4451",
"5  c #715556",
"6  c #655F61",
"7  c #755E67",
"8  c #7A6969",
"9  c #696B71",
"0  c #736570",
"q  c #B20D2E",
"w  c #B91C2F",
"e  c #843F29",
"r  c #E6002A",
"t  c #EA0936",
"y  c #F8023E",
"u  c #E91837",
"i  c #E52837",
"p  c #E53939",
"a  c #9A4F29",
"s  c #8F5A29",
"d  c #9D582E",
"f  c #875534",
"g  c #A0582E",
"h  c #A24A3F",
"j  c #BF7B38",
"k  c #EB5F2A",
"l  c #E85935",
"z  c #DE6A38",
"x  c #C8713E",
"c  c #EF682D",
"v  c #E87E2C",
"b  c #EE643E",
"n  c #F46C3A",
"m  c #EB7735",
"M  c #E47E3B",
"N  c #ED7C3D",
"B  c #F17833",
"V  c #FB0142",
"C  c #EF1A42",
"Z  c #F02E49",
"A  c #F82455",
"S  c #EE3A52",
"D  c #84584A",
"F  c #A96A48",
"G  c #B8744D",
"H  c #AE7656",
"J  c #BA7654",
"K  c #B37A57",
"L  c #805265",
"P  c #81686A",
"I  c #867067",
"U  c #927E71",
"Y  c #DB5841",
"T  c #F44D4E",
"R  c #E85C42",
"E  c #CB6F41",
"W  c #DE6F44",
"Q  c #CA7241",
"!  c #C67549",
"~  c #D87649",
"^  c #EB614A",
"/  c #F96340",
"(  c #EC7C44",
")  c #EC794B",
"_  c #E97352",
"`  c #F57253",
"'  c #D7823A",
"]  c #E68127",
"[  c #E58129",
"{  c #EF9027",
"}  c #EC883C",
"|  c #F39A37",
" . c #F4943C",
".. c #F9A235",
"X. c #FEAC37",
"o. c #FFA53B",
"O. c #FEAC3C",
"+. c #F7B13B",
"@. c #B5825C",
"#. c #CA8444",
"$. c #DB8D48",
"%. c #DD9545",
"&. c #D7904D",
"*. c #CA865D",
"=. c #D98E52",
"-. c #DD945C",
";. c #E98745",
":. c #E48F42",
">. c #F08440",
",. c #F28F46",
"<. c #F28B4E",
"1. c #E7924B",
"2. c #EF9A4C",
"3. c #F49D44",
"4. c #F99844",
"5. c #FA9E48",
"6. c #E48053",
"7. c #F48453",
"8. c #F48855",
"9. c #E39955",
"0. c #F69755",
"q. c #F6A243",
"w. c #FBA347",
"e. c #FEAC43",
"r. c #F6A74B",
"t. c #FAAB4B",
"y. c #E7B04B",
"u. c #F7B74A",
"i. c #FDB34E",
"p. c #E7A755",
"a. c #FAA655",
"s. c #FFAE58",
"d. c #EAB759",
"f. c #FEB252",
"g. c #FEB059",
"h. c #C88964",
"j. c #D89968",
"k. c #D29877",
"l. c #DD9A71",
"z. c #D7A17C",
"x. c #DCA67D",
"c. c #F7AB67",
"v. c #EEBD60",
"b. c #E4A575",
"n. c #E6A578",
"m. c #F6C459",
"M. c #F6C563",
"N. c #FBD468",
"B. c #FDD670",
"V. c #817D93",
"C. c #8A8F8E",
"Z. c #898B92",
"A. c #86869D",
"S. c #8E949A",
"D. c #949094",
"F. c #A89D94",
"G. c #8E94AF",
"H. c #96A2A9",
"J. c #9DA6AA",
"K. c #A9ADB0",
"L. c #ADB6B5",
"P. c #A7B3BC",
"I. c #B3BCB9",
"U. c #B4C1BF",
"Y. c #A4ACCC",
"T. c #ACBAC3",
"R. c #A9B5CE",
"E. c #B0BFC3",
"W. c #A6AFD1",
"Q. c #A7B1D1",
"!. c #A9B4D2",
"~. c #AEBAD2",
"^. c #B1BED3",
"/. c #BBC8C7",
"(. c #B4C3CD",
"). c #BAC8C8",
"_. c #B5C4D3",
"`. c #BBCBD5",
"'. c #BECED9",
"]. c #BFD0D7",
"[. c #C0CED9",
"{. c #C3D3D2",
"}. c #C4D5DA",
"|. c #C7D8DB",
" X c #CDDEDE",
".X c #CFE0DE",
"XX c #D0E1DF",
"oX c #D0E2E0",
/* pixels */
" X X'.!..X X X X`. X X X X`. X X X X`.`.`.`.`.Q.}. X X X`.}. X X",
" X X}.`. X X X X`. X X X X`. X X X X`.`.`.`.`._. X X X X`.}. X X",
" X X}.`. X X X X`. X X X X_. X X X X`.`.`.`.`._. X X X X`.}. X X",
" X X}.`. X X X X`. X X X XW. X X X X`.`.`.`.`.Q.}. X X X`.}. X X",
"`.`.`.'.oX|.|.}.(._._._._.Y._._._._.Y._.`._._.!._.`.`.`.!.Q.W.W.",
" X XJ.& 3 1 1 1 < < < < < < < < < < < $ < $ < $ & {. X X!._.`.`.",
".X/.- @.x.x.x.x.x.x.x.x.x.x.x.x.x.x.x.K k.K k.H H   {..X!._.`.`.",
"I.L.z.n.n.b.b.b.b.b.b.b.b.b.b.b.b.b.n.l.*.l.*.l.J - # oX!._.`.`.",
"U.+ h.n.n.n.n.n.n.n.n.n.n.n.n.n.n.n.n.J l.J l.G G ; # oX!._.`.`.",
"T.6 F Q x x x x x x x x x x x x x x E Q x Q x Q ! % 6 `.!.Q.Q.Q.",
" X}.D ~ v ] ] [ [ [ ] ] ] ] ] [ v n / m [ ] ] ] M . ). X`.}. X X",
" X X).D.$.O.O.4.>.4.e.e.X.X.X.O.,.p t `  .X.X.O.} X L..X`.}. X X",
" X X}.(.K t.5.` u ^ a.i.O...X.e.^ A A Z k o.X.e.1.+ P XX`.}. X X",
" X X|.`.F.! W t V C 7.f.| { ..e.7.S A T B o.X.q.1.O U. X`.|. X X",
"`.`._.!.S.f 6.p y i 8.f.e.X.X.e.g.W Y <...X.u.:.*., (.`.!._.`.`.",
"|.|.}._.T.I.-.8.b ( a.0.(  .O.i.i.f.s.f.X.+.N.&.; K. X X_.}.|.|.",
" X X}.`.}.{.@.q.O.e.f.` u n e.i.f.i.i.i.O.u.M.=.: }. X X`.}. X X",
" X X}.`. X{.D j e.e.f.0.R c w.f.<.( a.i.+.N.p.F 2 .X X X`.`.`. X",
" X X|.`..X.XC.e ) ,.f.f.3. .t.s.R u ) f.m.d.9.o /. X X.X`.|..X X",
"`.`._.!.`.`.Z.P w z f.i.i.i.i.t.>.l ( f.N.%.G , T.`.`.`.!._.`.`.",
"}.}.`._.}.}.}.E.h M i.i.i.r.t.O.X.| 3.M.v.=.: _.}.}.}.}._.`.}.}.",
" X X}.`. X X X).D #.i.i.i.3.q.X.X.O.u.B.p.F 5 _.|. X X X`.}. X X",
" X X}.`. X X X X9 s r.f.f.t.O.O.O.O.m.d.9.@ G.Q._.}. XXX`.}. X X",
" X X}.`..X X X XZ.I ! _ 7.w.O.N b 5.N.%.G 0 P.`.`.`.`.!.Q._.`. X",
"].]._.~.].].].`.~.R.4 q i } e.l r c.y.' = Q.`.`.`.`.`._._.^.~.].",
"}.}.`.~.}.}.}.`.Q.!.V.L w ( O.} N 2.:.d 8 ~.`.`.`.`.`.`.`._.^.}.",
" X X}.`. X X X}.Q.Q.!.R.> #.O.X.{ v a /.`.`.`.`.`.`.`.`.`.`.]. X",
" X X}.`. X X X}.Q.Q.`._.A.U j.2.;.g 7 |. X X`.`.`.`.`.XX`.}. X X",
" X X}.`. X X X}.Q.`.`.`.`.`.* @ o P.Y. X X X X`.`.}. X`.`.}. X X",
"}.}.`.^.}.}.}.`.Q.`.`.`.`.`.J.H.H.(.Q.}.}.}.}.~.`.`.}.`.^.`.}.}.",
"`.`._.!.`.`.`.`.!.`.`.`.`.`.`.`.`.`.Q.`.`.`.`.Q._.`.`.`.~._.`.`.",
" X X[.!.`. X X X`.`.`.`.`.`.`.`.`.`.W. X X X.XQ._.}. X.X`.}. X X"
};
