/* XPM */
static char *xpm_[] = {
/* columns rows colors chars-per-pixel */
"50 50 217 2 ",
"   c #1E0501",
".  c #230402",
"X  c #2A0100",
"o  c #270A07",
"O  c #300000",
"+  c #3A0000",
"@  c #3B0D05",
"#  c #2F120F",
"$  c #391408",
"%  c #2F1513",
"&  c #3B1C15",
"*  c #361C19",
"=  c #3A1B19",
"-  c #3D2221",
";  c #480203",
":  c #4A1C0A",
">  c #411E18",
",  c #70000C",
"<  c #50220D",
"1  c #462316",
"2  c #4B2214",
"3  c #44241B",
"4  c #552816",
"5  c #5C301A",
"6  c #652E19",
"7  c #541D20",
"8  c #462523",
"9  c #452A25",
"0  c #4B2B26",
"q  c #4B2D2A",
"w  c #572522",
"e  c #532E2D",
"r  c #4E3128",
"t  c #53332D",
"y  c #5A3729",
"u  c #563332",
"i  c #724326",
"p  c #63413A",
"a  c #794435",
"s  c #694843",
"d  c #7D5955",
"f  c #79686D",
"g  c #BE2B10",
"h  c #901C2A",
"j  c #A51D38",
"k  c #902A32",
"l  c #B32728",
"z  c #B02630",
"x  c #CF1316",
"c  c #D5131B",
"v  c #DA131E",
"b  c #CC271D",
"n  c #CC1B20",
"m  c #DC1629",
"M  c #C81A34",
"N  c #D91730",
"B  c #EB0E2E",
"V  c #E31429",
"C  c #ED0C34",
"Z  c #EE0B39",
"A  c #F6063C",
"S  c #E71839",
"D  c #CC3C2E",
"F  c #DF3D29",
"G  c #D9383A",
"H  c #E62438",
"J  c #E2323C",
"K  c #965F38",
"L  c #9B623A",
"P  c #A5653C",
"I  c #B0623D",
"U  c #E47F19",
"Y  c #D8572C",
"T  c #D95331",
"R  c #EB542D",
"E  c #E65536",
"W  c #DD6230",
"Q  c #DE7735",
"!  c #DF7936",
"~  c #DE7B39",
"^  c #E67F23",
"/  c #E97C26",
"(  c #EA7B2C",
")  c #F5752D",
"_  c #E4693E",
"`  c #F96A3D",
"'  c #E47B34",
"]  c #E4753C",
"[  c #E47E3B",
"{  c #ED783A",
"}  c #F57334",
"|  c #D71640",
" . c #FB0242",
".. c #F61A49",
"X. c #EA2C49",
"o. c #F22548",
"O. c #E73145",
"+. c #F82456",
"@. c #FB2259",
"#. c #915D4D",
"$. c #915F50",
"%. c #8E6250",
"&. c #996C56",
"*. c #AB6B49",
"=. c #BD6E43",
"-. c #B76E4A",
";. c #B87145",
":. c #B6724B",
">. c #A66E56",
",. c #AD7358",
"<. c #B47353",
"1. c #BE7A53",
"2. c #B87E5B",
"3. c #956F63",
"4. c #A87C63",
"5. c #ED4C43",
"6. c #E75644",
"7. c #D87C48",
"8. c #C47D5A",
"9. c #E66946",
"0. c #F86843",
"q. c #EB7847",
"w. c #F07244",
"e. c #F86053",
"r. c #FE795A",
"t. c #C67061",
"y. c #F97F63",
"u. c #E58019",
"i. c #D38624",
"p. c #D98438",
"a. c #D59239",
"s. c #E58023",
"d. c #EA862E",
"f. c #F2982E",
"g. c #EF8F32",
"h. c #E88B35",
"j. c #F89C37",
"k. c #FEAD37",
"l. c #F8A339",
"z. c #FEA73C",
"x. c #FEAC3B",
"c. c #EFB33B",
"v. c #F9B036",
"b. c #F4B139",
"n. c #B98058",
"m. c #93827A",
"M. c #AF8168",
"N. c #B98469",
"B. c #DD8E43",
"V. c #D68349",
"C. c #DF8E4C",
"Z. c #DC9144",
"A. c #DE9149",
"S. c #C4835D",
"D. c #C7855C",
"F. c #D78456",
"G. c #DB8E53",
"H. c #EA8643",
"J. c #E28B4D",
"K. c #F38648",
"L. c #EF9040",
"P. c #F39846",
"I. c #FE9B4E",
"U. c #E78D52",
"Y. c #F2865A",
"T. c #FB9457",
"R. c #FC9D53",
"E. c #E9AA4C",
"W. c #F5A247",
"Q. c #FEA445",
"!. c #FEAB42",
"~. c #FEA34B",
"^. c #FEAD4C",
"/. c #F4B746",
"(. c #FDB144",
"). c #FDB34D",
"_. c #FEA454",
"`. c #FEAD56",
"'. c #FBA95A",
"]. c #FEAB5C",
"[. c #ECB952",
"{. c #FDB252",
"}. c #F9B355",
"|. c #C48763",
" X c #D6966B",
".X c #FE9C64",
"XX c #FF966D",
"oX c #E19E76",
"OX c #EEA968",
"+X c #FFA362",
"@X c #FDA76A",
"#X c #F6B965",
"$X c #E4A575",
"%X c #E1A876",
"&X c #E3A57A",
"*X c #E7A87A",
"=X c #EFC24F",
"-X c #F5C558",
";X c #F3C55C",
":X c #F3C566",
">X c #FFD66A",
",X c #FFDA6D",
"<X c #FFC278",
"1X c #FFD774",
"2X c #FFDC73",
"3X c #868488",
"4X c #979699",
"5X c #9B9BA1",
"6X c #ABAFAE",
"7X c #CDA283",
"8X c #D8A989",
"9X c #A0A7C5",
"0X c #A7B1D1",
"qX c #B1C0C9",
"wX c #BACBD5",
"eX c #C4D2D1",
"rX c #CEDFDE",
/* pixels */
"rXrXrXrX0X0XrXrXrXrXrXrXwXwXrXrXrXrXrXrXwXwXrXrXrXrXrXrXwXwXwXwXwXwXwXwX0X0XrXrXrXrXrXrXwXwXrXrXrXrX",
"rXrXrXrX0X0XrXrXrXrXrXrXwXwXrXrXrXrXrXrXwXwXrXrXrXrXrXrXwXwXwXwXwXwXwXwX0X0XrXrXrXrXrXrXwXwXrXrXrXrX",
"rXrXrXrXwXwXrXrXrXrXrXrXwXwXrXrXrXrXrXrXwXwXrXrXrXrXrXrXwXwXwXwXwXwXwXwXwXwXrXrXrXrXrXrXwXwXrXrXrXrX",
"rXrXrXrXwXwXrXrXrXrXrXrXwXwXrXrXrXrXrXrXwXwXrXrXrXrXrXrXwXwXwXwXwXwXwXwXwXwXrXrXrXrXrXrXwXwXrXrXrXrX",
"rXrXrXrXwXwXrXrXrXrXrXrXwXwXrXrXrXrXrXrX0X0XrXrXrXrXrXrXwXwXwXwXwXwXwXwX0X0XrXrXrXrXrXrXwXwXrXrXrXrX",
"rXrXrXrXwXwXrXrXrXrXrXrXwXwXrXrXrXrXrXrX0X0XrXrXrXrXrXrXwXwXwXwXwXwXwXwX0X0XrXrXrXrXrXrXwXwXrXrXrXrX",
"wXwXwXwXwXwXrXrXrXrXrXrXwXwXwXwXwXwXwXwX0X0XwXwXwXwXwXwX0X0XwXwXwXwXwXeX0X0XwXwXwXwXwXwX0X0X0X0X0X0X",
"wXwXwXwXwXwXrXrXeXeXeXeXqXqXqXqXqXqXqXqX9X9XqXqXqXqXqXqX9X9XqXwXqXqXqX0X0X0XwXwXwXwXwXwX0X0X0X0X0X0X",
"rXrXrXrXo                                                             . .   . rXrXrXrXrX0X0XwXwXwXwX",
"rXrXrX# 3.4.7X7X7X7X7X7X7X7X7X7X7X7X7X7X7X7X7X7X7X7X7X%X7X7X&.M.7X>.4.7X&.4.3.= * rXrXrX0X0XwXwXwXwX",
"rXrX6X9 4.n.%X%X%X%X%X%X%X%X$X$X%X%X$X%X$X$X$X%X%X%X%X%X*X*X,.n.&X<.S.&X<.<.,.> * rXrXrX0X0XwXwXwXwX",
"rXo rX8X&X&X$X$X$X$X$X%X$X$X$X$X$X$X$X$X$X$X$X$X$X$X$X$X$X%X*X X-.*X X-.&XoX<.a p   rXrX0X0XwXwXwXwX",
"rX. y n.%X$X$X$X$X$X$X$X$X$X$X$X$X$X$X$X$X$X$X$X$X$X$X$X$X%X1.D.oX1.|.oX8.8.<.a p   rXrX0X0XwXwXwXwX",
"rX. t ,.oX$X$X$X$X$X$X&XoX&X$X&X$X$X$X$X$X$X$X$X$X$XoX$X$X&X-.D.&X:.8.&X-.-.<.a p   rXrX0X0XwXwXwXwX",
"wX. t ,.;.=.I =.=.=.I =.=.=.=.=.~ I =.8.;.=.=.=.I 7.=.=.=.=.=.=.=.=.=.=.=.-.<.a u   wXwX0X0X0X0X0X0X",
"wXwX3Xy 8.7.[ ' Q Q d.~ ' ! Q Q ~ Q Q W Q Q Q Q Q Q Q ] q.] ] ' Q Q ] Q Q ] 7.4 - 4XwXwX0X0X0X0X0X0X",
"rXrXrXX |.7.( / ^ ^ ^ ^ s.^ s.s.i.^ ^ ^ U ^ ^ s.s.^ ( ` 0.` ) ^ ^ ^ ^ U s./ [ : % rXrXrXwXwXrXrXrXrX",
"rXrXrXrXX 6 p.z.z.k.z.Q.~.~.Q.!.x.x.z.k.z.k.x.z.x.Q.T.c B c T.~.z.z.x.z.z.j.~ : % rXrXrXwXwXrXrXrXrX",
"rXrXrXrXwXwXi OXx.k.z.I.T T Y `.).(.!.k.k.k.k.x.z.[ 6.o.....5._ d.z.k.x.x.Q.J.4 9 4XrXrXwXwXrXrXrXrX",
"rXrXrXrXwXwX1 *X^.!.I.r.B A J XX].{.).x.z.z.k.k.Q.9.X.@.@.+.o.F ) z.k.k.!.^.B.5 q d rXrXwXwXrXrXrXrX",
"rXrXrXrXwXwX3 |.C._.D m A  ...G Y.{.).g.u.u.f.x.~.9.O.+.@.+.X.F ) z.k.k.!._.J.5 q 6XrXrXwXwXrXrXrXrX",
"rXrXrXrXwXwXrXm.L @XD B  . .A O.Y.`.).z.l.f.k.k.^..XY.X.+.X.e.} j.k.k.x.j.P.U.5 9 rXrXrXwXwXrXrXrXrX",
"wXwXwXwX0X0XwX9 i @XY n A  .Z G Y.}.{.!.k.k.k.k.).{.@XD G D K.g.k.k.b.b.a.U.|.w 8 wXwXwX0X0XwXwXwXwX",
"wXwXwXwX0X0XwX9 y F..Xy.V C m r._.].}.`.x.k.k.(.).).}.+X+X+X].!.k.v.=X>XJ.D.: %.wXwXwXwX0X0XwXwXwXwX",
"rXrXrXrXwXwXwXwXrXK OX_.q.w.q.I.'.+X9._ W Q.x.(.).).).}.}.{.).!.v.v.=X2XZ.S.3 5XrXrXrXrXwXwXrXrXrXrX",
"rXrXrXrXwXwXwXwXrX1 %X^.!.!.!.).}..XJ S c I.!.).).).).).).).).x.v.c.=X1XA.|.1 wXrXrXrXrXwXwXrXrXrXrX",
"rXrXrXrXwXwXrXrXrX1 D.p.x.k.x.).)..XJ o.v } l.).).}.{.^.{.{.).(.b.>X:Xa.C.N.& rXrXrXrXrXwXwXwXwXrXrX",
"rXrXrXrXwXwXrXrXrXs %.K ~.x.x.).).`.q.0.R ) P.{.}.T._ 9.U.}.).(.c.2X:XZ.P %.t rXrXrXrXrXwXwXwXwXrXrX",
"rXrXrXrXwXwXrXrXrXrX0 2 .XT.I.^.).).`.L.( d.W.{.].9.V H 9.+X{././.,X#XG.4 8 rXrXrXrXrXrXwXwXrXrXrXrX",
"rXrXrXrXwXwXrXrXrXrX- ; l n g `.}.).).).!.^.).{.].9.V H 6.K.{.-X,Xa.Z.G.< * rXrXrXrXrXrXwXwXrXrXrXrX",
"wXwXwXwX0X0XwXwXwXwXt f h M b _.).{.).).).).).).).K._ E 0.H.}.-X2XZ.F.*.y u wXwXwXwXwXwX0X0XwXwXwXwX",
"wXwXwXwX0X0XwXwXwXwXwXwXO z g `.).).).).).{.).).x.x.~.d.h.h.[.;X1XB.2.3 0X0XwXwXwXwXwXwX0X0XwXwXwXwX",
"rXrXrXrXwXwXrXrXrXrXrXrXX t.q._.).).).).{.h.W.(.k.k.k.!.).}.1X:Xa.C.2.& wXwXrXrXrXrXrXrXwXwXrXrXrXrX",
"rXrXrXrXwXwXrXrXrXrXrXrXe $.P ^.).).).).{.h.W.!.k.k.x.x.).}.2X#XA.*.&.q wXwXrXrXrXrXrXrXwXwXrXrXrXrX",
"rXrXrXrXwXwXrXrXrXrXrXrXwX* $ '.}.).}.}.{.h.l.x.x.k.v.x./.[.2X#XC.< 0 0X0X0XwXwXrXrXrXrXwXwXrXrXrXrX",
"rXrXrXrXwXwXrXrXrXrXrXrXwX* # p.~.].}.}.).^.!.x.x.!.x.(.-X,Xa.J.G.2 - 0X0X0XwXwXrXrXrXrXwXwXrXrXrXrX",
"rXrXrXrXwXwXrXrXrXrXrXrXwXq 0 *.Y.y.q.T.I.^.x.!.q.w.{ Q.;X2Xa.V.,.e q wXwXwXwXwXwXwX0X0X0X0XwXwXrXrX",
"rXrXrXrXwXwXrXrXrXrXrXrXwXwXrXO k z N 5.} Q.x.I.c B c _.-X>Xp.*.X 0XwXwXwXwXwXwXwXwX0X0X0X0XwXwXrXrX",
"wXwXwXwX0X0XwXwXwXwXwXwX0X0X0X0X7 , | S x ~.x.R.v B c <X[.i.p.<.X 0XwXwXwXwXwXwXwXwXwXwXwXwX0X0XwXwX",
"wXwXwXwX0X0XwXwXwXwXwXwX0X0X0X0Xe 7 j M n ~.x.~.Y E T OXE.! I $.8 0XwXwXwXwXwXwXwXwXwXwXwXwX0X0XwXwX",
"rXrXrXrXwXwXrXrXrXrXrXrX0X0X0X0X0X0X+ k l _.x.x.!.~.~.( ' F.X 8 wXwXwXwXwXwXwXwXwXwXwXwXwXwXwXwXrXrX",
"rXrXrXrXwXwXrXrXrXrXrXrX0X0X0X0X0X0XwXw ; '.x.v.k.f.^ ' I + rXrXwXwXwXwXwXwXwXwXwXwXwXwXwXwXwXwXrXrX",
"rXrXrXrXwXwXrXrXrXrXrXrX0X0X0X0XwXwX0Xe =  XE.(.j.g.' =.#.> rXrXrXrXwXwXwXwXwXwXwXwXrXrXwXwXrXrXrXrX",
"rXrXrXrXwXwXrXrXrXrXrXrX0X0X0X0XwXwX0X0XwX. M.*X7.7.F.X 0 0XrXrXrXrXwXwXwXwXwXwXwXwXrXrXwXwXrXrXrXrX",
"rXrXrXrXwXwXrXrXrXrXrXrX0X0XwXwXwXwXwXwXwXwXr $ @ @ @ wX0X0XrXrXrXrXrXrXwXwXwXwXrXrXwXwXwXwXrXrXrXrX",
"rXrXrXrXwXwXrXrXrXrXrXrX0X0XwXwXwXwXwXwXwXwXt * & * = wX0X0XrXrXrXrXrXrXwXwXwXwXrXrXwXwXwXwXrXrXrXrX",
"wXwXwXwX0X0XwXwXwXwXwXwX0X0XwXwXwXwXwXwXwXwXwXwXwXwXwXwX0X0XwXwXwXwXwXwX0X0XwXwXwXwXwXwX0X0XwXwXwXwX",
"wXwXwXwX0X0XwXwXwXwXwXwX0X0XwXwXwXwXwXwXwXwXwXwXwXwXwXwX0X0XwXwXwXwXwXwX0X0XwXwXwXwXwXwX0X0XwXwXwXwX",
"rXrXrXrX0X0XwXwXrXrXrXrXwXwXwXwXwXwXwXwXwXwXwXwXwXwXwXwX0X0XrXrXrXrXrXrX0X0XwXwXrXrXrXrXwXwXrXrXrXrX",
"rXrXrXrX0X0XwXwXrXrXrXrXwXwXwXwXwXwXwXwXwXwXwXwXwXwXwXwX0X0XrXrXrXrXrXrX0X0XwXwXrXrXrXrXwXwXrXrXrXrX"
};
