/* XPM */
static char *_5ed20cca35b4381b65ee06bc95b303b4JToQsAQUe7oc5uL[] = {
/* columns rows colors chars-per-pixel */
"32 32 195 2 ",
"   c #2D273B",
".  c #38354A",
"X  c #3B3C56",
"o  c #4B3340",
"O  c #533948",
"+  c #593E51",
"@  c #3C4D6E",
"#  c #584048",
"$  c #434257",
"%  c #4B4553",
"&  c #44425A",
"*  c #47485E",
"=  c #4D4A5B",
"-  c #5B4856",
";  c #57535D",
":  c #634D54",
">  c #774B54",
",  c #675153",
"<  c #775B57",
"1  c #75605E",
"2  c #434964",
"3  c #4B4964",
"4  c #524D63",
"5  c #4F5168",
"6  c #545464",
"7  c #5C5762",
"8  c #5C5864",
"9  c #51566D",
"0  c #5C576B",
"q  c #58596B",
"w  c #545C71",
"e  c #5A5E71",
"r  c #5C657B",
"t  c #63626C",
"y  c #69626A",
"u  c #74656B",
"i  c #7B6B69",
"p  c #636270",
"a  c #6E6C74",
"s  c #63667B",
"d  c #636A7F",
"f  c #6B6C79",
"g  c #786E75",
"h  c #76737A",
"j  c #72747A",
"k  c #815650",
"l  c #8C635E",
"z  c #8D6E62",
"x  c #936A69",
"c  c #8C7169",
"v  c #9A786C",
"b  c #847775",
"n  c #9F7C73",
"m  c #A96D65",
"M  c #A27867",
"N  c #948272",
"B  c #998473",
"V  c #AE8F74",
"C  c #B19277",
"Z  c #B3967C",
"A  c #496388",
"S  c #5F6D85",
"D  c #657183",
"F  c #697385",
"G  c #6B7589",
"H  c #747A85",
"J  c #757A87",
"K  c #7A7C83",
"L  c #727C8E",
"P  c #687A93",
"I  c #727E93",
"U  c #877F85",
"Y  c #927C89",
"T  c #7F8187",
"R  c #7D818D",
"E  c #758195",
"W  c #7C8592",
"Q  c #7A849B",
"!  c #7F8A9B",
"~  c #6B87A5",
"^  c #7C8CA2",
"/  c #7C99B3",
"(  c #83858C",
")  c #86888D",
"_  c #8A898C",
"`  c #938481",
"'  c #9D8A82",
"]  c #828792",
"[  c #888992",
"{  c #8C8E95",
"}  c #848E9D",
"|  c #8E9397",
" . c #87919E",
".. c #8B929C",
"X. c #95959B",
"o. c #92959D",
"O. c #959A9C",
"+. c #9A9C9F",
"@. c #AF8581",
"#. c #A9938B",
"$. c #B79F82",
"%. c #858EA1",
"&. c #8792A2",
"*. c #8994A3",
"=. c #8695AA",
"-. c #939AA3",
";. c #9B9DA7",
":. c #949DAB",
">. c #829DB4",
",. c #8F9CB6",
"<. c #919FB2",
"1. c #999FB8",
"2. c #AC9FA3",
"3. c #93A0AE",
"4. c #9DA4AB",
"5. c #9AA3B3",
"6. c #9FA9B3",
"7. c #95A6B9",
"8. c #9AA2BA",
"9. c #95A8B9",
"0. c #9DACBB",
"q. c #A3A5A6",
"w. c #A3A7AB",
"e. c #A4A9AE",
"r. c #AAABAB",
"t. c #B3ABA9",
"y. c #AFB1AF",
"u. c #B8B2AC",
"i. c #A3A7B0",
"p. c #A3AAB2",
"a. c #A9ADB3",
"s. c #A3ADB9",
"d. c #ACB1B5",
"f. c #A6B1BA",
"g. c #ACB5BC",
"h. c #ADB9BD",
"j. c #B2B5B3",
"k. c #B5B9B8",
"l. c #B5BBBB",
"z. c #BBBEBD",
"x. c #CB9D94",
"c. c #D3A18C",
"v. c #C9AA9A",
"b. c #DCB39C",
"n. c #D6ADA5",
"m. c #D2B5A5",
"M. c #BDC0BF",
"N. c #C1C4BF",
"B. c #EBC1A8",
"V. c #9AB3C5",
"C. c #9FB8CA",
"Z. c #A4AECC",
"A. c #ACB5C4",
"S. c #AEB9C3",
"D. c #AAB8CD",
"F. c #B4BDC2",
"G. c #B5BFC7",
"H. c #A6AFD1",
"J. c #A7B0D1",
"K. c #A9B4D1",
"L. c #AEBAD2",
"P. c #B1BFD3",
"I. c #B6C2C3",
"U. c #BBC3C4",
"Y. c #B5C3CD",
"T. c #BBC4CB",
"R. c #BDC9CC",
"E. c #B4C3D4",
"W. c #B8C7D5",
"Q. c #BACBD5",
"!. c #BFCDD9",
"~. c #BFD0D7",
"^. c #BFD0D8",
"/. c #C2C5C2",
"(. c #C8CBC6",
"). c #C3CBCB",
"_. c #CACECA",
"`. c #C4D0CF",
"'. c #CED1CC",
"]. c #D2D5CE",
"[. c #D7D9CF",
"{. c #C0CFD6",
"}. c #C3D2D4",
"|. c #C9D4D4",
" X c #C9D8D7",
".X c #C4D5DA",
"XX c #C7D8DB",
"oX c #CDDEDD",
"OX c #D2D6D2",
"+X c #D6D9D2",
"@X c #D9DDD7",
"#X c #D3DDDB",
"$X c #CFE0DE",
"%X c #DCE2DD",
"&X c #D0E1E0",
/* pixels */
"oXoX!.K.$XoXoXoXW.oXoXoXw.J J T { I.Y.W.W.W.Q.J..X$X$X$XQ.XXoXoX",
"oXoX.XW.oXoXoXoXW.oXoX4.^ 0.V.Q.#Xi. .Q.W.W.Q.E.oX$X$X$XQ.XXoXoX",
"oXoX.XQ.oXoXoXoXW.$X).L >.V.V.C.C.D.-.h.Q.W.W.E.oXoX$XoXQ.XXoXoX",
"oXoX.XQ.oXoXoXoXW.oXw.A ~ / >./ ~ P S p S.W.W.J..XoXoXoXW..XoXoX",
"W.W.W.Q.$XoX$XoXW.W.S.r @ 2 & . > > % s.Q.Q.W.J.E.W.W.W.K.J.H.H.",
"oXoXXXQ.oXoXoXoXW.W.l.y o Z l x c.#.z.oXoXoXoXW.oXoXoXoXK.E.W.W.",
"oXoX.XQ.oXoXoX.XL.XXoXU.O M c b.B.m.#.XX$X$XoXW.oXoXoX$XK.E.W.W.",
"oXoX.XW.oXoX$XXXJ.$X$X$Xw.+ : b.B.v.g.oX$X$XoXW.oXoXoX$XK.E.W.W.",
"oXoX!.K.$XXX+.| ] O.O.`.z.x m < n F.W.oXoXoXoXW.oXoXoX$XK.E.W.W.",
"W.W.E.K.a.) l.z.z.z.l.T p U 2.X.l.W.H.W.W.W.W.J.E.W.W.W.K.J.J.J.",
"oXoX!.K.4.-.OX+X+X@XT.w K q.;.4.F.oXW.oXoXoXoXJ.E..XoXoXW..XoXoX",
"oXoX.XP.d.J z.N./.N.+.2 f.%X_.w.#XoXW.oXoXoXoXP.^.XXoXoXQ..XoXoX",
"oXoX.XQ.oXh G 0 0 r r w <.R.OX4.oXoXW.oXoXoXoXW.oXoX$XoXQ..XoXoX",
"oXoXXXQ.&X[ 0.F W S.s.d =.L S.t.r. XW.oX$XoX$XW.oXoXoX$XQ.XXoXoX",
"W.W.E.K.Q.{ '.R.).@XT.e e E %.x.v.v.u.U.t.R.Q.J.E.W.W.Q.K.E.Q.W.",
"XXXX.XE.Q.( f.A.S.F.0.5 E Y.7.Y x.n.@.g ` o.}.E.W.~.XXoXE..XXXXX",
"oXoXXXW..Xz.] L R W W i.f ( R e F.oXh.h 6 Q R.W.~..XoXoXQ..XoXoX",
"oXoXXXQ.oXoX X}.Y.Y.}.).< v v 1 F.oXK.}.) -.oXW.oXoXoXoXQ.W.Q.oX",
"oXoXXXQ.$XoXoXoXG._ { T # z B N F.oXW.XX_ | oXW.oXoXoX$XQ.XX$XoX",
"Q.Q.E.K.Q.Q.Q.W.i.; .     < $.B F.Q.K.W.-.j h.K.W.Q.Q.Q.K.E.Q.Q.",
".X.XQ.E..X.X.X.XE.U.l.J K i Z B F..XP.h.*.d.I.E..X.X.X.XE.Q..X.X",
"oXoX.XQ.XXl.j.U.l. Xd.:.I , C B U.oXF.o.o.-.j.j.U.y.U.$XQ..XoXoX",
"oXoX.XQ.K 6 !  .G ( i.a.*.u C B F.).e.e.M.( ( s } F = I.Q..XoXoX",
"$XoX}.a t F.OX+Xh.3.r r.a.: V B O.a.d./.j 5 s.+.+X).) = 8.E.Q.oX",
"~.Q.| p p.U.]./.d.4.Q j (.b V ' ! a.K.+.q 6.:.d./.'.i...= 8.L.~.",
".X}.7 r.[.l.g.w.a._.G.s ( i M ' 5.L.A.% &.+X|.5.e.a.].).s 8.P..X",
"oXoX7 k.[.'.} 6.d./.U.z.:.- k # i.W.A.% -.+XOX<.&.q.[._.d f.~.oX",
"oXoXy y.].U.5.q.I ;.o.$ q $ X 3 d 4.A.; ..+X'.d.r.d.'._.e F.oXoX",
"oXoXh.8 p.p.].+XU.p.o.K Y.j * & $ X.J.d.a F.6.[.+X].a.{ 8 R.oXoX",
".X.XY.a 6 M.OX].'.| . p.Q.A.o.f ;.G.J.{._ t -.'.]._.[ 4 1.W..X.X",
"Q.Q.E.Z.j = 9 r 3 6 a.W.W.W.W.Q.W.W.J.Q.Q.a.% 9 P D = g.L.E.Q.Q.",
"oXoX0.,.7.! I E I <.7.7.7.7.7.7.7.7.,.0.0.0.%.E I I ^ 0.7.R.oXoX"
};
