/* XPM */
static char *xpm_[] = {
/* columns rows colors chars-per-pixel */
"50 50 222 2 ",
"   c #21162A",
".  c #22162C",
"X  c #30132E",
"o  c #251D33",
"O  c #271B37",
"+  c #2B1E36",
"@  c #351C35",
"#  c #2C243C",
"$  c #2E283E",
"%  c #35223B",
"&  c #42223E",
"*  c #332C44",
"=  c #392A44",
"-  c #372E4A",
";  c #2E304C",
":  c #35334B",
">  c #3A344C",
",  c #3C3652",
"<  c #3D3A53",
"1  c #3E3A5B",
"2  c #4A2C46",
"3  c #44374B",
"4  c #593C42",
"5  c #462951",
"6  c #423E54",
"7  c #423D5B",
"8  c #683D45",
"9  c #3E4255",
"0  c #3B4967",
"q  c #5E4144",
"w  c #43435B",
"e  c #48475A",
"r  c #534759",
"t  c #57515D",
"y  c #684749",
"u  c #754D4C",
"i  c #77564E",
"p  c #7B4C56",
"a  c #695457",
"s  c #735A57",
"d  c #7B5C52",
"f  c #7D635B",
"g  c #454864",
"h  c #494C63",
"j  c #4B4E6A",
"k  c #554F63",
"l  c #4A5168",
"z  c #5E5A64",
"x  c #585768",
"c  c #555A6D",
"v  c #4B5771",
"b  c #4B5A77",
"n  c #555C76",
"m  c #595A76",
"M  c #615C65",
"N  c #4C607F",
"B  c #5B6175",
"V  c #5C637C",
"C  c #5E697B",
"Z  c #616067",
"A  c #64636D",
"S  c #6C696F",
"D  c #786467",
"F  c #666673",
"G  c #6B6974",
"H  c #686978",
"J  c #716D72",
"K  c #767475",
"L  c #75747A",
"P  c #79777E",
"I  c #7B7A7C",
"U  c #84564E",
"Y  c #895955",
"T  c #96685E",
"R  c #866A64",
"E  c #89776B",
"W  c #8A786C",
"Q  c #97746A",
"!  c #9E7B6C",
"~  c #957877",
"^  c #B36F6A",
"/  c #A47667",
"(  c #C17B6F",
")  c #A4826F",
"_  c #AC8B73",
"`  c #A38979",
"'  c #BC8B7B",
"]  c #B29378",
"[  c #4B648A",
"{  c #5A7396",
"}  c #636C82",
"|  c #686E85",
" . c #637186",
".. c #697386",
"X. c #6A7589",
"o. c #787682",
"O. c #7C7C84",
"+. c #747A8C",
"@. c #7B7F8B",
"#. c #697A95",
"$. c #717B90",
"%. c #837784",
"&. c #7E818C",
"*. c #6E8097",
"=. c #7C8193",
"-. c #78889D",
";. c #6A87A6",
":. c #7688A3",
">. c #7E8BA3",
",. c #7B92AB",
"<. c #7D9BB5",
"1. c #858385",
"2. c #82828A",
"3. c #8C8A8E",
"4. c #968A89",
"5. c #868894",
"6. c #848D9A",
"7. c #8C8E9B",
"8. c #978D92",
"9. c #89919B",
"0. c #939295",
"q. c #9B9596",
"w. c #93959C",
"e. c #96999C",
"r. c #9B9C9C",
"t. c #AA9288",
"y. c #B89885",
"u. c #B38D90",
"i. c #A39998",
"p. c #B9A184",
"a. c #B9A388",
"s. c #A3A39F",
"d. c #828DA4",
"f. c #8694A6",
"g. c #8C94A3",
"h. c #8394AB",
"j. c #8A96AB",
"k. c #8E9AAC",
"l. c #949AA3",
"z. c #9C9CA2",
"x. c #929BA9",
"c. c #849EB5",
"v. c #909FB4",
"b. c #8DA1AF",
"n. c #9DA2A3",
"m. c #9CA2AC",
"M. c #8AA2B6",
"N. c #95A2B2",
"B. c #9CA5B2",
"V. c #9DA9B5",
"C. c #94A7BB",
"Z. c #9DABBC",
"A. c #A4A4A4",
"S. c #A6A9A6",
"D. c #A3A5AA",
"F. c #A8A7A8",
"G. c #A6A9AC",
"H. c #ABACAC",
"J. c #B6AAA7",
"K. c #AFB1AF",
"L. c #B1B2AF",
"P. c #A5AAB3",
"I. c #A4AAB5",
"U. c #AAADB2",
"Y. c #A2ADBA",
"T. c #ADB0B4",
"R. c #A7B3BC",
"E. c #ADB5BC",
"W. c #B2B3B3",
"Q. c #B9B8B4",
"!. c #BBBDB7",
"~. c #B1B4BA",
"^. c #B5BABC",
"/. c #BBBCBB",
"(. c #C3938B",
"). c #D59E8B",
"_. c #C3AB9B",
"`. c #DCA692",
"'. c #E5AC93",
"]. c #C6B3A9",
"[. c #D4B3AE",
"{. c #E5BFAA",
"}. c #C4C1BD",
"|. c #ECC6AE",
" X c #F1C8AC",
".X c #97AFC5",
"XX c #9AB3C6",
"oX c #9AB5C8",
"OX c #AEB9C3",
"+X c #A5B8C8",
"@X c #B2BBC3",
"#X c #B4BCC7",
"$X c #BABFC3",
"%X c #A7B1D1",
"&X c #C4BCC3",
"*X c #B7C0C6",
"=X c #BCC1C4",
"-X c #B4C0CA",
";X c #BDC5CA",
":X c #BEC9CE",
">X c #BACBD5",
",X c #C2C5C2",
"<X c #C4C9C4",
"1X c #C9CCC7",
"2X c #C0C6C8",
"3X c #C5CBCB",
"4X c #CACECA",
"5X c #C7D0CE",
"6X c #CDD1CD",
"7X c #D2D5CE",
"8X c #D7D8CF",
"9X c #C5CED1",
"0X c #CCD3D2",
"qX c #CBD7D8",
"wX c #CEDFDE",
"eX c #D3D7D1",
"rX c #D6D9D2",
"tX c #D8DBD4",
"yX c #D9DED9",
"uX c #D2E0DD",
"iX c #DCE2DE",
"pX c #E1E7E4",
/* pixels */
"wXwXwXwX%X%XwXwXwXwXwXwX>X>XwXwXwXwXwX^.&.Z Z Z Z A H.wX>X>X>X>X>X>X>X>X%X%XwXwXwXwXwXwX>X>XwXwXwXwX",
"wXwXwXwX%X%XwXwXwXwXwXwX>X>XwXwXwXwXT...-.b.b.R.*XE.D.P A.>X>X>X>X>X>X>X%X%XwXwXwXwXwXwX>X>XwXwXwXwX",
"wXwXwXwX>X>XwXwXwXwXwXwX>X>XwXwXwXK.+.:.C.oXoX+XqXpXqXV.#.r.>X>X>X>X>X>X>X>XwXwXwXwXwXwX>X>XwXwXwXwX",
"wXwXwXwX>X>XwXwXwXwXwXwX>X>XwXwXwXn.N M.XXXXXXoXoX-XXX-Xl.2.>X>X>X>X>X>X>X>XwXwXwXwXwXwX>X>XwXwXwXwX",
"wXwXwXwX>X>XwXwXwXwXwXwX>X>XwXwXH.| { <.oXoXXXoXoXoX.X+XoXf.q.>X>X>X>X>X%X%XwXwXwXwXwXwX>X>XwXwXwXwX",
"wXwXwXwX>X>XwXwXwXwXwXwX>X>XwXwXr.b { ;.<.<.c.<.<.#.#.{  .v e e.>X>X>X>X%X%XwXwXwXwXwXwX>X>XwXwXwXwX",
">X>X>X>X>X>XwXwXwXwXwXwX>X>X>X>Xz.0 [ [ [ [ v v 0 1 , - 5 = 7.>X>X>X>X>X%X%X>X>X>X>X>X>X%X%X%X%X%X%X",
">X>X>X>X>X>XwXwXwXwXwXwX>X>X>X>X>X0.; ; ; 3 2 @ @ Y ^ Y X 0.>X>X>X>X>X>X%X%X>X>X>X>X>X>X%X%X%X%X%X%X",
"wXwXwXwX>X>XwXwXwXwXwXwX>X>X>X>XL.z @ @ / ).T @ Q `.' t.}.>XwXwXwXwXwXwX>X>XwXwXwXwXwXwX%X%X>X>X>X>X",
"wXwXwXwX>X>XwXwXwXwXwXwX>X>X>X>XwXeXq.@ / `.` ! '.{.u.i.].r.wXwXwXwXwXwX>X>XwXwXwXwXwXwX%X%X>X>X>X>X",
"wXwXwXwX>X>XwXwXwXwXwXwX%X%XwXwXwXwXA.& 8 Y a y. X X{.|.y.1.wXwXwXwXwXwX>X>XwXwXwXwXwXwX%X%X>X>X>X>X",
"wXwXwXwX>X>XwXwXwXwXwXwX%X%XwXwXwXwXwX0.2 2 % u. X X X_.q.>XwXwXwXwXwXwX>X>XwXwXwXwXwXwX%X%X>X>X>X>X",
"wXwXwXwX%X%XwXwXwXwXwXwX%X%XwXwXwXwXwXwX8.p u a y.'.y.s.>X>XwXwXwXwXwXwX>X>XwXwXwXwXwXwX%X%X>X>X>X>X",
"wXwXwXwX%X%XwXwXwXr.K K K K K I P W.wXQ.F ^ ( u 8 i i.>X>X>XwXwXwXwXwXwX>X>XwXwXwXwXwXwX%X%X>X>X>X>X",
">X>X>X>X%X%X>Xr.%.T.n.S.G.H.G.G.G.r.O.o.%.i.J.i.3.A.:X>X%X%X>X>X>X>X>X>X%X%X>X>X>X>X>X>X%X%X%X%X%X%X",
">X>X>X>X%X%X>XK +.5XtXyXuXtXiXtX0X7.. # G G 7.Y.0.^.>X>X%X%X>X>X>X>X>X>X%X%X>X>X>X>X>X>X%X%X%X%X%X%X",
"wXwXwXwX%X%X>XK g.4XeXeXrXrXrXtX#XX.; O.A.G.w.R.n.D.wXwX>X>XwXwXwXwXwXwX%X%X>X>XwXwXwXwX>X>XwXwXwXwX",
"wXwXwXwX%X%X>XL +.1XeXeXeXrXrXrXI.h n R.yXiX<XP.G.qXwXwX>X>XwXwXwXwXwXwX%X%X>X>XwXwXwXwX>X>XwXwXwXwX",
"wXwXwXwX>X>XwXi.x 0.A.A.G.D.A.D.P    .Z.0XiXiXz.G.iXwXwX>X>XwXwXwXwXwXwX>X>XwXwXwXwXwXwX>X>XwXwXwXwX",
"wXwXwXwX>X>XwXwXK m } k r h v l v w  .v.OXqXyXE.l.wXwXwX>X>XwXwXwXwXwXwX>X>XwXwXwXwXwXwX>X>XwXwXwXwX",
"wXwXwXwX>X>XwXwXO.-.M.V = X.f.x.j.n X.C.f.m.:X9X7.F.wXwX>X>XwXwXwXwXwXwX>X>XwXwXwXwXwXwX>X>XwXwXwXwX",
"wXwXwXwX>X>XwXwX2.I.-X-.} m.;X0XOXV X.h.B C C.$X_.i.n.0X>X>XwXwXwXwXwXwX>X>XwXwXwXwXwXwX>X>XwXwXwXwX",
">X>X>X>X%X%X>X>X2.,XtX3X*X5XiXiX#X} c c c -.>.u.'.[.y.].].Q.>XJ.L.>X>X>X%X%X>X>X>X>X>X>X%X%X>X>X>X>X",
">X>X>X>X%X%X>X>XO.E.9X9X0X5X5X0X@X} o x B.+X,.~ ' ).).).(.` t.t.i.K.>X>X%X%X>X>X>X>X>X>X%X%X>X>X>X>X",
"wXwXwXwX>X>X>X>XI k.Z.Z.Z.Z.Y.+XM.} w -.-X>XXX,.~ u.[.[.(.R x D 4.+.^.wX>X>X>X>XwXwXwXwX>X>XwXwXwXwX",
"wXwXwXwX>X>X>X>XW.2. .}  . ... . .n.9.C -.g.>.*.n I.wXwX>X1.M 7 j :.5.wX>X>X>X>XwXwXwXwX>X>XwXwXwXwX",
"wXwXwXwX>X>XwXwXwXT.A.A.A.A.F.F.G.wXH.q y f f a = P.wXwX%X&XD.8.e &.W.wX>X>XwXwXwXwXwXwX>X>X>X>XwXwX",
"wXwXwXwX>X>XwXwXwXwXwXwX>X>X>X>XwXuXS.y ) _ W ) s R.wXwX%X%XqX$Xw 9.wXwX>X>XwXwXwXwXwXwX>X>X>X>XwXwX",
"wXwXwXwX>X>XwXwXwXwXwXwX>X>XK.G.H.U.2.4 Q ) R ` W U.wXwX>X>XwX/.g z.wXwX>X>XwXwXwXwXwXwX>X>XwXwXwXwX",
"wXwXwXwX>X>XwXwXwXwXwXwX>Xn.9 : g w < % q Y ` a.E T.wXwX>X>XwX/.+ A W.wX>X>XwXwXwXwXwXwX>X>XwXwXwXwX",
">X>X>X>X%X%X>X>X>X>X>X>X%Xs.z # o o o o % W p.a.E T.>X>X%X%X>X>Xc A o.>X%X%X>X>X>X>X>X>X%X%X>X>X>X>X",
">X>X>X>X%X%X>X>X>X>X>X>X%X%XH.0.1.F $ z Z R ] y.W T.>X>X%X%X>XB.N.$XI >X%X%X>X>X>X>X>X>X%X%X>X>X>X>X",
"wXwXwXwX>X>XwXwXwXwXuXuX>X>XwXwXwXm.| l.3.d ] p.E W.wXwX>X>Xm...g.T.e.wX>X>XwXwXwXwXwXwX>X>XwXwXwXwX",
"wXwXwXwX>X>XwXwX}.!.!.5X=X=XwXwXD.w.v.$., d ] p.E ~.wXwX>XT.5.T.L 6.5XH./.:X0X!.!.5XwXwX>X>XwXwXwXwX",
"wXwXwXwX>X>XwXI * 9 h h h < e.s.U.U.6.h.} d ] p.W T.wXwXT.D.D.D.=X5.^.# : h l e # G wXwX>X>XwXwXwXwX",
"wXwXwXwX>X>XS > B g.V.I.V.=.c m.B.U./.g.$.i _ y.E H.wX~.m.I.D.eXH.H I.L F B.V.x.n $ S wX>X>XwXwXwXwX",
"wXwXwXwX>XG > A Y.6XeXrXrXY.N.k.c w.0XR.g i _ p.E z.T.P.U.U.6XH.* , @.;XO.tXrX4XY.S - A %X%X>X>XwXwX",
"wXwXwXwXJ , F I.0XtXtXtX5XV.m.6.h ; G.Q.M i _ p.W j I.G.T.>XA.* h F d.V.l.1XrXrX7XE.A 1 t #X>X>XwXwX",
">X>X>Xl.x Z =Xm.E.eX4X<Xm.E.G.b.-.e 0.7XG.i _ p.4.d.g.T.%X%Xi.< +.@XV.g.$Xl.<XeX/.x.^.$.> t %X%X>X>X",
">X>X>XK - G.6X8XI.;XI.5.~.D.W.tX-X .$ e.e.i ) y.q.>.~.%X%XL.O B Y.rXeX:Xg.$Xw.$XG.8X6X@Xl o.%X%X>X>X",
"wXwXwXK > ^.7X8XrX&.@X0Xw.^.tXtX$Xg.%.H w u T / f P.>X>X%XW.+ B OXtXtX6XXX6.-X@.tXrX7X^.B O.>X>XwXwX",
"wXwXwXK > /.8X8XrX5.d.v.V.~.,X<X<X<X3XY.B 8 U y - e.>X>X%XW.+ B @XrXtX6XY.} j.%.rX8X7X/.n O.>X>XwXwX",
"wXwXwXK - /.7X8X6XN.=.P m v | %.H 7 O j l * * 1 m m z.>X%XH.o B ~.8XrXeX~.o.P w.<X8X8X}.v O.wXwXwXwX",
"wXwXwX0.r S.7X1XR.k.3XeX^.k.E.eXOXV z K z 9 g 9 7 V n 1.%XQ.z x P.tXeX$XP.rX7X2XV.1X7X^.7 o.wXwXwXwX",
"wXwXwXwXL > U.B.x.4XrXeXtX~.k.~.w.* U.>XA.$ , > = = $ F.%X%XW.Z P ;XC.z.tX8X8XrX3XB.U.n 6 z.wXwXwXwX",
"wXwXwXwX1.e = D.7XrX8XrXtXtX3XL - t ~.>XH.+.d.d.d.d.5.W.%X%XwXL.O F E.6XrX8X8X8X6XL.7 e %.>XwXwXwXwX",
">X>X>X>X%XE > = P.6X4X<X1X<X5.> > H.>X>X>X>XA.r t z.2X>X%X%X>X/.z z w &.<X1X4X4XH.7 7 %.%X%X>X>X>X>X",
">X>X>X>X%X%XK + - g }  .V 7 #   ~.>X>X>X>X>X>X>X>X>X>X>X%X%X>X>X>XH.* > h #.-.d.- , @.>X%X%X>X>X>X>X",
"wXwXwXwX%X%X>X>XK   . . . . m.>X>X>X>X>X>X>X>X>X>X>X>X>X%X%XwXwXwXwX,X. . . . o . o.wXwX>X>XwXwXwXwX",
"wXwXwXm.>.h.f.h.h.h.h.h.h.h.h.h.h.h.j.h.h.h.h.h.j.h.h.h.j.,.h.,.,.h.j.h.h.h.h.h.h.h.h.,.d.d.wXwXwXwX"
};
