/* XPM */
static char *_7348ced74244f61e44ebe4ce101679cXwDcRtWq43RbWaEr[] = {
/* columns rows colors chars-per-pixel */
"32 32 177 2 ",
"   c #39232E",
".  c #352E36",
"X  c #343138",
"o  c #3B3138",
"O  c #43252C",
"+  c #412B32",
"@  c #463037",
"#  c #693B37",
"$  c #67473C",
"%  c #3D4F52",
"&  c #445356",
"*  c #4B5C5F",
"=  c #525B5E",
"-  c #704640",
";  c #7C5A45",
":  c #765B48",
">  c #6E595B",
",  c #705B5C",
"<  c #7C614B",
"1  c #7E665D",
"2  c #565E61",
"3  c #605F62",
"4  c #5B6568",
"5  c #7F706D",
"6  c #697877",
"7  c #6D7B7A",
"8  c #73777B",
"9  c #787778",
"0  c #737C7B",
"q  c #805F48",
"w  c #8B594C",
"e  c #815A57",
"r  c #866146",
"t  c #85634B",
"y  c #896452",
"u  c #906254",
"i  c #9E775C",
"p  c #816D69",
"a  c #8E7265",
"s  c #917867",
"d  c #957A6B",
"f  c #857675",
"g  c #837F75",
"h  c #8F7F73",
"j  c #867878",
"k  c #957A74",
"l  c #74807D",
"z  c #8C8279",
"x  c #94877C",
"c  c #B68F60",
"v  c #BA9261",
"b  c #AF9476",
"n  c #B09374",
"m  c #CC967B",
"M  c #DA9A76",
"N  c #D09B7D",
"B  c #CBA775",
"V  c #CBAA7F",
"C  c #D7A07B",
"Z  c #747C81",
"A  c #6E8582",
"S  c #798384",
"D  c #7D8A8A",
"F  c #818784",
"G  c #808688",
"H  c #828B8B",
"J  c #84918F",
"K  c #8C908F",
"L  c #9B948B",
"P  c #849593",
"I  c #8B9594",
"U  c #8E9F9C",
"Y  c #939693",
"T  c #939996",
"R  c #9F9890",
"E  c #97979A",
"W  c #949D9C",
"Q  c #9E9D9C",
"!  c #A08887",
"~  c #A59889",
"^  c #B39483",
"/  c #B29F85",
"(  c #B29389",
")  c #A99F95",
"_  c #B49D95",
"`  c #B89E94",
"'  c #91A29F",
"]  c #ABA195",
"[  c #A6A29A",
"{  c #B8A59A",
"}  c #8D9EA2",
"|  c #999EA1",
" . c #94A4A4",
".. c #9CA6A4",
"X. c #97A9A7",
"o. c #9AABA5",
"O. c #9AA7AF",
"+. c #9DADAA",
"@. c #9AA4BB",
"#. c #A8A8A7",
"$. c #A3AAA8",
"%. c #A2ACAD",
"&. c #AAADAC",
"*. c #B6ABAA",
"=. c #B5ACAC",
"-. c #A3B2AD",
";. c #AFB1AF",
":. c #A3AEB4",
">. c #ABB4B3",
",. c #ABB2BB",
"<. c #B3B6B3",
"1. c #B4BAB6",
"2. c #BBBAB6",
"3. c #B3BBBB",
"4. c #BBBDBD",
"5. c #C69780",
"6. c #CE9C85",
"7. c #C49D8D",
"8. c #D7A286",
"9. c #D0B084",
"0. c #C4A697",
"q. c #C8AA9D",
"w. c #D0AC9D",
"e. c #D4BF9F",
"r. c #E6B185",
"t. c #EBBC91",
"y. c #CEAFA0",
"u. c #D0AEA0",
"i. c #C4B4A8",
"p. c #D2BBA5",
"a. c #C4BAB5",
"s. c #C2BFBE",
"d. c #B7C2BF",
"f. c #DCC6A4",
"g. c #E4C2A3",
"h. c #E9CBAA",
"j. c #A8B1CE",
"k. c #B4BEC3",
"l. c #B9BFC2",
"z. c #A6AFD1",
"x. c #A7B1D1",
"c. c #A9B4D2",
"v. c #AEBBD3",
"b. c #B1BED3",
"n. c #B5C3C4",
"m. c #BBC4C4",
"M. c #B2C2CB",
"N. c #BFCBC8",
"B. c #B4C3D4",
"V. c #B8C8D5",
"C. c #BACBD5",
"Z. c #BFCDD9",
"A. c #BFD0D7",
"S. c #BFD1D8",
"D. c #C2C6C4",
"F. c #C2CAC7",
"G. c #C9C9C4",
"H. c #C2CCCB",
"J. c #CBCBC9",
"K. c #CCD1CE",
"L. c #D2D0CF",
"P. c #C0CED9",
"I. c #C5D4D4",
"U. c #CCD3D2",
"Y. c #C9D8D6",
"T. c #C4D5DA",
"R. c #C7D8DB",
"E. c #CDDEDE",
"W. c #D1D5D5",
"Q. c #D2DAD7",
"!. c #D7DEDD",
"~. c #CFE0DE",
"^. c #D0E1DF",
"/. c #DFE3DD",
"(. c #DEE6E4",
"). c #E0E7E3",
"_. c #E4EBE9",
/* pixels */
"E.E.Z.c.~.E.E.E.V.E.E.E.E.V.~.I.H.E.V.V.V.V.C.x.T.~.~.E.V.R.E.E.",
"E.E.T.V.E.E.E.E.V.E.E.E.E.V.E.I H E.V.V.V.V.C.V.E.~.E.E.V.R.E.E.",
"E.E.T.V.E.E.E.E.V.E.E.E.E.B.E.D D E.V.V.V.V.C.B.E.E.E.E.V.R.E.E.",
"E.E.T.V.E.E.E.E.V.E.E.E.E.z.E.D D Y.V.V.V.V.C.x.T.E.E.E.V.T.E.E.",
"V.V.V.V.~.E.E.E.V.V.V.V.V.z.M.7 4 M.z.V.V.V.V.x.B.V.V.V.c.x.z.z.",
"E.E.T.V.E.E.~.E.V.V.E.Y.Y.V.Y.6 7 I.V.E.E.E.E.V.E.E.E.E.c.B.V.V.",
"E.E.T.V.E.E.E.T.v.Y.E.E.I.V.Y.9 P E.V.E.E.~.E.V.E.E.E.~.c.B.V.V.",
"E.E.T.V.E.E.E.T.x.~.E.~.E.V.Y.0 D I.V.E.^.~.E.V.E.E.E.~.c.B.V.V.",
"E.E.Z.c.~.E.E.T.x.~.d.} } V.Y.4 & D V. .} 3.~.V.E.E.E.~.c.B.V.V.",
"V.V.B.c.V.V.V.B.x.j.W 8 Z @.O.% & Z @.Z 9 } V.x.B.V.V.V.c.x.x.x.",
"E.E.Z.c.V.E.E.T.x.k.5 ! > 9 y r r y j , ! p N.x.B.T.E.E.V.T.E.E.",
"E.E.T.b.T.E.E.T.x.,.i s q $ : ; ; : $ r s i d.b.S.R.E.E.V.T.E.E.",
"E.E.T.V.E.E.E.T.c.V.) z t : c v v v < t z ~ E.V.E.E.E.E.C.T.E.E.",
"E.E.R.V.~.E.E.E.V.V.I.:.8 x V B B 9.z 8 3.U.~.C.E.E.E.~.C.R.E.E.",
"V.V.B.c.C.V.V.k.( *.M.:.X.[ e.f.f.f.[  .:.M._ ( l.V.V.V.c.B.C.V.",
"Y.Y.T.B.V.Y.E.{ N =.$.>.>.h R ) ] ~ h <.>.+.*.m 0.S.Y.E.B.T.Y.Y.",
"E.E.R.V.T.E.~.w.^ !.n.Y.h { )._._.(.] x Q.n.!.^ u.T.E.E.C.T.E.E.",
"E.E.R.V.E.E.~.y.p.3.(.K.b J.U.2.2.W.J.n L.(.>.p.y.~.E.E.C.V.C.E.",
"E.E.R.V.~.E.~.q.8.D.W.4.^ &.0.M M 5.#./ s.W.G.6.q.~.~.^.V.R.~.E.",
"C.C.B.c.V.C.V.7.6.a.J.4.S I e # # - G F 4.K.a.m 7.V.V.V.c.B.V.V.",
"T.T.V.B.T. .1 8.t.d &.3.Z 4   O O   = D 3.&.a r.C 1 O.T.B.V.T.T.",
"E.E.T.V.~.W x g.h.f F.U.3 + . X o o + 3 F.F.f h.g.L W ~.V.T.E.~.",
"E.E.T.V.E.E.H.G.i.2.m.k @ * 6 A A 7 = + k 3.=.i.4.H.E.~.C.T.E.~.",
"E.E.T.V.~.E.E.E.V.~._ u 2 P X.+.+.o.P = w ` V.V.V.V.V.x.x.B.V.E.",
"A.A.B.v.A.A.A.V.v.b.{ g J U -.m.N.>.' P g { V.V.V.C.V.B.B.b.v.A.",
"T.T.V.v.T.T.T.V.x.x.#.7 o. .>...W 3... .l &.V.V.C.V.V.V.V.B.b.T.",
"E.E.T.V.E.~.E.T.x.x.| S m.7 H.K J H.0 F.H #.C.V.V.C.V.C.V.C.A.E.",
"E.E.T.V.~.~.~.T.x.c.E T 1.T /.Y W /.W d.T Q V.V.C.C.C.^.C.T.E.~.",
"E.E.T.V.E.E.E.T.x.V.l.T U.H.D.F.F.D.K.U.Y Y.E.V.C.T.E.C.V.T.E.~.",
"T.T.V.b.T.T.T.C.x.V.n.f 3.U.H %.>.H U.>.f m.T.v.V.V.T.V.b.V.T.T.",
"A.C.B.c.V.V.C.V.c.V.V.V.E ;.d.%.3.m.&.Q H.V.V.x.B.C.A.C.v.B.V.A.",
"E.~.P.c.V.E.E.E.V.V.V.V.V.k.;.4.D.<.,.E.E.E.~.x.B.T.E.~.V.T.~.~."
};
