/* XPM */
static char *xpm_[] = {
/* columns rows colors chars-per-pixel */
"50 50 212 2 ",
"   c #381F28",
".  c #2D242D",
"X  c #32242D",
"o  c #3A232D",
"O  c #3E2A32",
"+  c #28383C",
"@  c #43242D",
"#  c #4C2A2D",
"$  c #422A34",
"%  c #5B3E38",
"&  c #673D38",
"*  c #703C39",
"=  c #5C4138",
"-  c #6C4F3C",
";  c #724A3C",
":  c #394547",
">  c #3C4A4C",
",  c #3F4E50",
"<  c #454A4B",
"1  c #444B51",
"2  c #455353",
"3  c #4B5454",
"4  c #485658",
"5  c #4B5B5D",
"6  c #595557",
"7  c #535D5E",
"8  c #624744",
"9  c #685143",
"0  c #755844",
"q  c #655755",
"w  c #745B56",
"e  c #79624F",
"r  c #79655C",
"t  c #4B5F61",
"y  c #5B6567",
"u  c #5D7577",
"i  c #68676A",
"p  c #626B6D",
"a  c #7A6967",
"s  c #6B706F",
"d  c #656C72",
"f  c #6B7375",
"g  c #687777",
"h  c #6B7A7E",
"j  c #727B7B",
"k  c #777879",
"l  c #86553E",
"z  c #854644",
"x  c #904E46",
"c  c #895D48",
"v  c #83634A",
"b  c #8C654C",
"n  c #8D6A4C",
"m  c #936649",
"M  c #8A6758",
"N  c #926951",
"B  c #93795C",
"V  c #AA6F5C",
"C  c #B36B55",
"Z  c #896768",
"A  c #8D756B",
"S  c #977A64",
"D  c #887C78",
"F  c #977B76",
"G  c #A87D6A",
"H  c #B77667",
"J  c #A67872",
"K  c #C3755C",
"L  c #CE7861",
"P  c #72827F",
"I  c #AF835F",
"U  c #9C8165",
"Y  c #82817E",
"T  c #8D837C",
"R  c #9B897A",
"E  c #A98767",
"W  c #B28A67",
"Q  c #BD9461",
"!  c #B7966F",
"~  c #A78777",
"^  c #A28C7D",
"/  c #B88674",
"(  c #A6937D",
")  c #B99977",
"_  c #C39C69",
"`  c #C38C75",
"'  c #C68F7D",
"]  c #C79479",
"[  c #DB9D74",
"{  c #CDA976",
"}  c #C1A17B",
"|  c #D9A77C",
" . c #677B82",
".. c #747F81",
"X. c #6D8385",
"o. c #728384",
"O. c #7B8584",
"+. c #778988",
"@. c #7B8B8B",
"#. c #7B928E",
"$. c #7C9492",
"%. c #858583",
"&. c #898485",
"*. c #868C8B",
"=. c #8B8C8B",
"-. c #968C87",
";. c #9D9186",
":. c #9B918C",
">. c #888C94",
",. c #839492",
"<. c #8A9696",
"1. c #879996",
"2. c #8D9C9C",
"3. c #949692",
"4. c #9B9593",
"5. c #969C9C",
"6. c #9D9E9C",
"7. c #A98A83",
"8. c #A29383",
"9. c #A8998B",
"0. c #BA9589",
"q. c #A59A97",
"w. c #B49B98",
"e. c #8DA19C",
"r. c #92A29E",
"t. c #9EA19E",
"y. c #A2A19D",
"u. c #ABA19B",
"i. c #B1A596",
"p. c #BEA49A",
"a. c #8E9DA0",
"s. c #949FA1",
"d. c #95A5A2",
"f. c #9BA8A4",
"g. c #99ACA6",
"h. c #95A8A8",
"j. c #A4A6A3",
"k. c #A8A7A3",
"l. c #A4ACAB",
"z. c #A9ADAB",
"x. c #B7A7A2",
"c. c #A3B2AD",
"v. c #ACB0AC",
"b. c #B1B3AB",
"n. c #A6A9B4",
"m. c #A7B4B2",
"M. c #ACB4B2",
"N. c #ACBAB5",
"B. c #ADBCB8",
"V. c #B4B5B2",
"C. c #BAB6B2",
"Z. c #BEB8B2",
"A. c #B7BBBA",
"S. c #B5BDBB",
"D. c #C99C83",
"F. c #D69E89",
"G. c #D3AA86",
"H. c #D2B58E",
"J. c #C6A99E",
"K. c #CAAA98",
"L. c #D9AD92",
"P. c #CDB29B",
"I. c #DAB699",
"U. c #E8AE85",
"Y. c #E9B48A",
"T. c #ECBD92",
"R. c #C9ADA2",
"E. c #CAB7A8",
"W. c #DDB9A2",
"Q. c #C1B9B4",
"!. c #C4BAB4",
"~. c #BCC2BE",
"^. c #EEC39A",
"/. c #D9C6AC",
"(. c #C0C1BE",
"). c #E5C9A8",
"_. c #E4D0AE",
"`. c #F2D4B2",
"'. c #A7B1CD",
"]. c #B4BBC7",
"[. c #A7B1D1",
"{. c #BCC4C3",
"}. c #BCC9C6",
"|. c #B8C6C8",
" X c #BECBCC",
".X c #BACBD5",
"XX c #C2C6C5",
"oX c #CAC6C1",
"OX c #C2C9C6",
"+X c #C3C6C8",
"@X c #C3CCCA",
"#X c #CACECD",
"$X c #C4D0CC",
"%X c #CCD1CE",
"&X c #D4D3CE",
"*X c #C4CFD2",
"=X c #CCD4D3",
"-X c #C8D4D4",
";X c #CEDFDE",
":X c #D2D6D2",
">X c #D4D9D5",
",X c #D4DBDA",
"<X c #DADFDC",
"1X c #DCE1DC",
"2X c #E1E5DF",
"3X c #DDE3E2",
"4X c #E2E5E5",
"5X c #E7EBE9",
"6X c #E6EBEA",
"7X c #EAF0EE",
"8X c #EEF2F1",
"9X c #F1F3F3",
/* pixels */
";X;X;X;X[.[.;X;X;X;X;X;X.X.X;X;X;X;X;X;X.X.X;X;X;X;X;X;X.X.X.X.X.X.X.X.X[.[.;X;X;X;X;X;X.X.X;X;X;X;X",
";X;X;X;X[.[.;X;X;X;X;X;X.X.X;X;X;X;X;X;X.X.X;X;X3.*.V.;X.X.X.X.X.X.X.X.X[.[.;X;X;X;X;X;X.X.X;X;X;X;X",
";X;X;X;X.X.X;X;X;X;X;X;X.X.X;X;X;X;X;X;X.X.X;X;X< : 1X;X.X.X.X.X.X.X.X.X.X.X;X;X;X;X;X;X.X.X;X;X;X;X",
";X;X;X;X.X.X;X;X;X;X;X;X.X.X;X;X;X;X;X;X.X.X;X;X: + ;X;X.X.X.X.X.X.X.X.X.X.X;X;X;X;X;X;X.X.X;X;X;X;X",
";X;X;X;X.X.X;X;X;X;X;X;X.X.X;X;X;X;X;X;X[.[.;X;X: : ;X;X.X.X.X.X.X.X.X.X[.[.;X;X;X;X;X;X.X.X;X;X;X;X",
";X;X;X;X.X.X;X;X;X;X;X;X.X.X;X;X;X;X;X;X[.[.;X;X> > ;X*X.X.X.X.X.X.X.X.X[.[.;X;X;X;X;X;X.X.X;X;X;X;X",
".X.X.X.X.X.X;X;X;X;X;X;X.X.X.X.X.X.X.X.X[.[..Xk., 2 |..X[.[..X.X.X.X.X.X[.[..X.X.X.X.X.X[.[.[.[.[.[.",
".X.X.X.X.X.X;X;X;X;X;X;X.X.X.X.X.X.X.X.X[.[.|..X: , y .X[.[..X.X.X.X.X.X[.[..X.X.X.X.X.X[.[.[.[.[.[.",
";X;X;X;X.X.X;X;X;X;X;X;X.X.X.X.X;X;X X;X.X.X,Xz., 4 c.-X X.X;X;X;X;X;X;X.X.X;X;X;X;X;X;X[.[..X.X.X.X",
";X;X;X;X.X.X;X;X;X;X;X;X.X.X.X.X;X;X;XS.]..X;Xb.5 t ;X;X.X.X;X;X;X;X;X;X.X.X;X;X;X;X;X;X[.[..X.X.X.X",
";X;X;X;X.X.X;X;X;X;X;X;X[.[.;X;X;X;X;X;X.X.X;Xb.3 5 ;X;X.X.X;X;X;X;X;X;X.X.X;X;X;X;X;X;X[.[..X.X.X.X",
";X;X;X;X.X.X;X;X;X;X;X;X[.[.;X;X;X;X;X;X.X.X;Xz.2 t ;X;X.X.X;X;X;X;X;X;X.X.X;X;X;X;X;X;X[.[..X.X.X.X",
";X;X;X;X[.[.;X;X;X;X;X;X[.[.;X;X;X;X;X;X.X.X;X,X> > *.,..X.X;X;X;X;X;X;X.X.X;X;X;X;X;X;X[.[..X.X.X.X",
";X;X;X;X[.[.;X;X;X;X;X;X[.[.;X;Xv.+. . ..X.X;X .+ + g @..X.XX.P @.l.;X;X.X.X;X;X;X;X;X;X[.[..X.X.X.X",
".X.X.X.X[.[..X.X.X.X.X.X[.[.[.[.s.d i p a.[..X5 > > 5 >.[.@.y y d h..X.X[.[..X.X.X.X.X.X[.[.[.[.[.[.",
".X.X.X.X[.[..X.X.X.X.X.X[.[.[.N.%.k n.>...[.f 4 4 2 4 i [.k >.A.a o.N..X[.[..X.X.X.X.X.X[.[.[.[.[.[.",
";X;X;X;X[.[..X.X;X;X;X;X[.[..X6.w q.F 8 6 A c l n m m n T q 8 F ~ w q.;X[.[..X.X;X;X;X;X.X.X;X;X;X;X",
";X;X;X;X[.[..X.X;X;X;X;X[.[..Xa N 7.w b & 0 - = m m = l - % n a 7.m r ;X[.[..X.X;X;X;X;X.X.X;X;X;X;X",
";X;X;X;X.X.X;X;X;X;X;X;X[.[..XD W U M 0 - 8 e n - e e v - ; ; b S E D ;X.X.X;X;X;X;X;X;X.X.X;X;X;X;X",
";X;X;X;X.X.X;X;X;X;X;X;X[.[..X.X8.;.w b 9 v Q Q Q Q Q Q n - n w R T =X;X.X.X;X;X;X;X;X;X.X.X;X;X;X;X",
";X;X;X;X.X.X;X;X;X;X;X;X.X.X.X.X.X.XD q j S { Q _ _ _ { B y q D ;XC.;X;X.X.X;X;X;X;X;X;X.X.X;X;X;X;X",
";X;X;X;X.X.X;X;X;X;X;X;X.X.X.X*X-X.X%.o.,.^ H.{ H.{ { H.( #.+.O.;X;X;X;X.X.X;X;X;X;X;X;X.X.X;X;X;X;X",
".X.X.X.X[.[..X.X.X.X.X.Xk.7.w..X.X.X*.a.N.9./.)._._._._.9.c.1.*..X.X!.7.-.x..X.X.X.X.X.X[.[..X.X.X.X",
".X.X.X.X[.[..X.X.X.X.Xw.D.[ H &.O.n.d. XM.r ~ } } } ) ! Z j.|.d.n.@.&.H [ ` x..X.X.X.X.X[.[..X.X.X.X",
";X;X;X;X.X.X.X.X;X;X;Xw.L.' Z.@XN.d.@Xc.A F 6.y.y.y.t.t.U A b. Xd.m.$XC.] G.R..X;X;X;X;X.X.X;X;X;X;X",
";X;X;X;X.X.X.X.X;X;X;XR.L.~ 4XOXN. X3Xa I k.<X3X5X1X1X1Xy.E D 1XOXB.$X3X~ G.R..X;X;X;X;X.X.X;X;X;X;X",
";X;X;X;X.X.X;X;X;X;X=XJ.W.4.3X|.$X5XV.U R :X9X9X8X7X8X7X%X^ E Z.6X#X|.3X7.I.R.;X;X;X;X;X.X.X.X.X;X;X",
";X;X;X;X.X.X;X;X;X;X;XJ.).W.f.|.8X9X4.! :.5X#Xn.j.c.z.:X7X:.! 4.9X6X|.5./.I.R.;X;X;X;X;X.X.X.X.X;X;X",
";X;X;X;X.X.X;X;X;X;X;XJ.W.F.oXz.5X8X4.0.:.*XE.T.U.U.| K.#X=.D.:.8X4Xv.oXD.I.R.;X;X;X;X;X.X.X;X;X;X;X",
";X;X;X;X.X.X;X;X;X;X;XJ.W.' :XOXS.+X%.( Y j.J L C C K H u.D 9.-.+X{.:X&X' I.p.,X;X;X;X;X.X.X;X;X;X;X",
".X.X.X.X[.[..X.X.X.X*X0.I.` b.&X&X~.M.f f...w l # # & & d d.j M.A.:X:Xx./ L.0..X.X.X.X.X[.[..X.X.X.X",
".X.X.X.X[.[..X.X.XY A ] ^.U.] u.&X:X:XP n.7 o @ @ #   X 1 5.@.:X:X:Xw./ [ T.] A P .X.X.X[.[..X.X.X.X",
";X;X;X;X.X.X;X;X .3 M | T.T.c y ,.2.2.u : o o @ $ @ @ @ o :  .r.2.,.y 9 Y.^.[ b 3 =.;X;X.X.X;X;X;X;X",
";X;X;X;X.X.X;X;X*.f ^ ).`.`.M <.=X4X=X6 @ $ . . . X O o @ O 6 @X<X=X<.r ).`.^.( O.=.;X;X.X.X;X;X;X;X",
";X;X;X;X.X.X;X;X;Xt.u.J.P.R.J s.b.z.f $ O > 4 5 t t 5 5 < O O i d.n.s.J P.K.R.Z.~.;X;X;X.X.X;X;X;X;X",
";X;X;X;X.X.X;X;X;X;X;X;XQ.C.oX,X=X~ x O 1 u X.@.$.$.#.+.g < X z ~ oX[.!.Z.Z..X.X;X;X;X;X.X.X;X;X;X;X",
";X;X;X;X.X.X;X;X;X;X;X;X.X.X;X;X) G * 1 #.e.r.g.g.g.g.r.r.#.: & V 0..X.X.X.X.X.X.X.X[.[.'.[..X.X;X;X",
";X;X;X;X.X.X;X;X;X;X;X;X.X.X;X;X( ~ 3 j p e.g.c.B.N.m.c.e.y P < E / .X.X.X.X.X.X.X.X[.[.[.[..X.X;X;X",
".X.X.X.X[.[..X.X.X.X.X.X[.[.[.[.i.T P 1.1.g.c.M.-X#X}.c.c.1.1.P R p..X.X.X.X.X.X.X.X.X.X.X.X[.[..X.X",
".X.X.X.X[.[..X.X.X.X.X.X[.[.[.[.b.f X.r.~.e.l.OX5.,.@Xm.g.~.e.+.k C..X.X.X.X.X.X.X.X.X.X.X.X[.[..X.X",
";X;X;X;X.X.X;X;X;X;X;X;X[.[.[.[.&.y ,.c.c.g c.1X7 s }.~.o.g.c.1.p =..X.X.X.X.X.X.X.X.X.X.X.X.X.X;X;X",
";X;X;X;X.X.X;X;X;X;X;X;X[.[.[.[.q.y 2.*Xf o.OX1X3 y  X%X@.g >Xf.s k..X.X.X.X.X.X.X.X.X.X.X.X.X.X;X;X",
";X;X;X;X.X.X;X;X;X;X;X;X[.[.[.[.6.y A.M.5 t.1X1X3 s %X1Xf.7 ~.~.y y..X.X.X.X.X.X.X.X;X;X.X.X;X;X;X;X",
";X;X;X;X.X.X;X;X;X;X;X;X[.[.[.].-.s A.}.O.~.4X1Xj @.:X4X}.*.%XA.s -..X.X.X.X.X.X.X.X;X;X.X.X;X;X;X;X",
";X;X;X;X.X.X;X;X;X;X;X;X[.[..X.X|.Y A.,X~.%X].3X~.{.>X~.<X|.:XM.T ,X;X;X.X.X.X.X;X;X.X.X.X.X;X;X;X;X",
";X;X;X;X.X.X;X;X;X;X;X;X[.[..X.XV.w =.,X>XXXf ,Xc.A.OXj XX=X=X=.a b.;X;X.X.X.X.X;X;X.X.X.X.X;X;X;X;X",
".X.X.X.X[.[..X.X.X.X.X.X[.[..X.X.X4.a 6.4X}.d >Xh 5.@Xf XX<X>.Z 4..X.X.X[.[..X.X.X.X.X.X[.[..X.X.X.X",
".X.X.X.X[.[..X.X.X.X.X.X[.[..X.X.X.X.XT =.{.m.3XX.5.1XB.XX*.&.~..X.X.X.X[.[..X.X.X.X.X.X[.[..X.X.X.X",
";X;X;X;X[.[..X.X;X;X;X;X.X.X.X.X.X.X.X.X:.k.+X=X].oX4XXXl.4.;X;X;X;X;X;X[.[..X.X;X;X;X;X.X.X;X;X;X;X",
";X;X;X;X[.[..X.X;X;X;X;X.X.X.X.X.X.X.X.X.X|.j.j.].(.A.k.].[.1X,X;X;X;X;X[.[..X.X;X;X;X;X.X.X;X;X;X;X"
};
