/* XPM */
static char *xpm_[] = {
/* columns rows colors chars-per-pixel */
"50 50 150 2 ",
"   c #2F3B45",
".  c #313D45",
"X  c #313F48",
"o  c #433F48",
"O  c #523E49",
"+  c #5F3D49",
"@  c #672F43",
"#  c #693647",
"$  c #6E3C47",
"%  c #673448",
"&  c #633D4A",
"*  c #6C3C4A",
"=  c #354048",
"-  c #3C424A",
";  c #524747",
":  c #494F56",
">  c #4B5057",
",  c #4D5359",
"<  c #51565B",
"1  c #53595D",
"2  c #7A4746",
"3  c #7D4B47",
"4  c #734249",
"5  c #7E5B5D",
"6  c #595E62",
"7  c #775861",
"8  c #7B6269",
"9  c #727077",
"0  c #757479",
"q  c #7A797E",
"w  c #9F6434",
"e  c #97603F",
"r  c #9A633E",
"t  c #A06536",
"y  c #A56C3B",
"u  c #A87D39",
"i  c #814E44",
"p  c #875B42",
"a  c #915C42",
"s  c #91604B",
"d  c #826261",
"f  c #857376",
"g  c #B78C2B",
"h  c #BD962B",
"j  c #BE9A2D",
"k  c #BA8E30",
"l  c #DAB50F",
"z  c #CEA010",
"x  c #D5AC10",
"c  c #D6B116",
"v  c #DAB510",
"b  c #C19E2B",
"n  c #7E7B82",
"m  c #807D83",
"M  c #848287",
"N  c #868489",
"B  c #89868A",
"V  c #8C8B8C",
"C  c #928A8C",
"Z  c #91908F",
"A  c #8E8C90",
"S  c #928F91",
"D  c #949393",
"F  c #989696",
"G  c #9A9995",
"H  c #999798",
"J  c #9D9C9C",
"K  c #A09F9E",
"L  c #9EA097",
"P  c #9FA198",
"I  c #A2A19E",
"U  c #AEA698",
"Y  c #A4A4A1",
"T  c #A8A7A5",
"R  c #A7A9A3",
"E  c #ABACA5",
"W  c #AEAEA9",
"Q  c #B2ABA5",
"!  c #B1AFAB",
"~  c #AEB0A6",
"^  c #ADB0A8",
"/  c #B0B2A7",
"(  c #B3B5AA",
")  c #BFB7A9",
"_  c #B6B9AC",
"`  c #B8BBAF",
"'  c #B6B5B0",
"]  c #B7BEB0",
"[  c #BBBCB2",
"{  c #BFBEB8",
"}  c #C0BFB8",
"|  c #BAC2B3",
" . c #BBC3B3",
".. c #BBC2B2",
"X. c #BAC1B2",
"o. c #BCC3B3",
"O. c #BCC4B3",
"+. c #BFC0B5",
"@. c #BCC5B4",
"#. c #BDC6B5",
"$. c #BEC7B6",
"%. c #BFC6B7",
"&. c #BEC6B6",
"*. c #BCC4B4",
"=. c #BFC8B7",
"-. c #BFC8B6",
";. c #BFC8B6",
":. c #C0C0B7",
">. c #C1C2B6",
",. c #C3C6BA",
"<. c #C5C6BB",
"1. c #C7C8BC",
"2. c #C6CABC",
"3. c #C6CCBD",
"4. c #C7C8BC",
"5. c #C9C9BD",
"6. c #D3CCBE",
"7. c #C9C8C0",
"8. c #CECEC3",
"9. c #CFCFC4",
"0. c #CDD1C2",
"q. c #CED2C3",
"w. c #CDD1C2",
"e. c #D0D0C4",
"r. c #D0D3C5",
"t. c #D0D4C5",
"y. c #D3D2C8",
"u. c #D5D4C9",
"i. c #D6D6CA",
"p. c #D7D6CB",
"a. c #D7D6CA",
"s. c #D5D7CA",
"d. c #D7D8CB",
"f. c #D9D8CD",
"g. c #DAD9CD",
"h. c #DBDACE",
"j. c #DAD9CE",
"k. c #DCDBCF",
"l. c #DBDACF",
"z. c #DCDBD0",
"x. c #DDDCD0",
"c. c #DEDDD1",
"v. c #DFDED2",
"b. c #DEDED1",
"n. c #DFDED2",
"m. c #E0DFD3",
"M. c #E0DED2",
"N. c #E0DFD3",
"B. c #E1E0D3",
"V. c None",
/* pixels */
"( ' ' ( K K K S B V R / ( ' R R ( Y J F B 7.b.v.v.v.M.b.M.b.[ I B I ^ ' ^ T Y ' Y J F Z H K ( ' ! ' ",
"T T T T V B N B B V B J K K B S J m N M n [ u.s.s.s.u.u.u.u.~ G m M D I K D A Y V N N Z D S T T T T ",
"v.m.m.m.,.W K (  .-.-._ ( ( ( E J J J J m n q G J J J n q q n n n L E / ^ #.-.-._ E J z.m.m.m.m.m.m.",
"v.v.v.v.h.,./ o.$.-.-.( ( ( ( ( E J J J U ~ ~ / ! / E J J F E ~ E L E _ _ | #.-.#.] ~ z.v.v.v.v.v.v.",
"v.v.v.v.b.2.( ` .... .~ I P P P I V V V I L I L P P P Z B V P P L V D P I X. .#.] _ ( j.b.b.v.v.v.m.",
"v.v.v.b.b.2./ J ~ ( ( B 9     .   . . .               . . .       = = = m U ( ( P Y ( z.v.b.v.v.v.m.",
"v.v.b.b.b.{ P / ( ~ Y 6 - = = = = = = = = = = = = = = = = = = = = = = = - Z I ( ^ W J $.q.v.v.v.v.M.",
"e.e.8.7.7.' T ( _ _ J 1 = = = = = = = = = = = = = = = = = = = = = = = = = V I X.( / R _ o.7.9.e.9.7.",
"( ( T J J R ( ( o...J 1 = = = = = = = = = = = = = = = = = = = = = = = =   V I -._ ( ( J J J ( / / J ",
"b.b.b.b.$.$.@./ o...J 1 = = = = = = = = = = = = = = = = = = = = = = = =   V I -.( ( -.$.[ / b.b.v.v.",
"M.b.b.b.r.3.@.( ....J 1 = = = = = = = = = = = = = = = = = = = = = = = = = V I -._ ` $.$.$.` b.b.v.v.",
"b.M.b.M.b.w.$.( ..[ J 1 = = = = = = = = = = = = = = = = = = = = = = = =   V I -.( _ $.$.$.$.b.b.v.v.",
"m.b.b.M.b.4./ J J H n : = = = = = = = = = = = = = = = = = = = = = = = = = 9 M J P Y ( #.-.-.b.b.v.v.",
"M.m.M.M.M.} R E E R F < = = = = = = = = = = = = = = = = = = = = = = = =   M F E E E I #. .` b.b.v.v.",
"z.l.j.f.j.[ K ( ( / J 1 = = = = = = = = = = = = = = = = = = = = = = = =   V I _ ( ^ P | ` ^ j.z.f.j.",
"/ / R H J R ( $.-. .J 1 = = = = = = = = = = = = = = = = = = = = = = = = = V Y =.-.| ( J J J ~ / / H ",
"f.s.u.y.y.2.@.$.&.| J 6 = = = = = = = = = = = = = = = = = = = = = = = = = V P =.-.#.X.X.,.y.s.s.y.y.",
"b.b.m.b.M.w.$.o.#.X.J , = = = = = = = = = = = = = = = = = = = = = = = =   V Y -.#.#.#.3.u.v.v.v.m.m.",
"M.b.b.M.M.w.$./ | | J 6 = = = = = = = = = = = = = = = = = = = = = = = = = V P -._ _ -.z.v.v.v.v.m.M.",
"b.M.M.b.b.5.( J I J M > = = = = = = = = = = = = = = = = = = = = = = = =   0 V Y P Y _ z.v.v.v.v.m.b.",
"m.v.v.v.s.o.E R Y I V , = = = = = = = = = = = = = = = = = = = = = = = =   n V R Y T R h.m.b.v.v.b.v.",
"b.m.v.v.-.~ K ( ( ^ J 1 = = = = = = = = = = = = = = = = = = = = = = = = = A P ( ^ W J j.b.b.v.v.m.v.",
"_ ( W K J T ( $.$.| J 1 = = = = = = = = = = = = = = = = = = = = = = = =   V Y -.-...( Y Y Y ( ( ( K ",
"4.4.<.} { ` ( $.$.| J 1 = = = = = = = = = = = = = = = = = = = = = = = =   V Y =.-...( ~ ( { 5.5.7.} ",
"M.M.v.v.m.4.( $.-...J 1 = = = = = = = = = = = = = = - = = = = = = = = = = B P =.$.o.( $.8.M.m.b.M.m.",
"M.M.v.v.v.4.( ( ....J 1 = = = = = = = = = = = = = = = = = = = = = = = = = V R -.( ( / l.b.m.b.m.b.M.",
"M.v.v.v.b.4./ R T E V , = = = = = = = = = = = = = = = = = = = = = = = = = q Z ^ R E ( j.v.v.M.b.m.b.",
"M.v.v.v.v.<./ K J J M > = = = = = = = = = = = = = = = = = = = = = = = =   9 B P I I / v.v.v.b.M.b.m.",
"m.M.m.m.$.~ J ( / / P 1 = = = = = = = = = = = = = = = = = = = = = = = = = V I ( ( E J k.m.m.m.M.m.m.",
":.} [ ! R T ~  ...X.J 1 = = = = = = = = = = = = = = = = = = = = = = = =   V I  .o.` E / ( ( } } } ! ",
"[ ` ( E T / ( -.>. .K 1 = = = = = = = = = = = = = = = = = = = = = = = = = V I -.$...( R R T [ [ [ T ",
"M.B.m.m.B.5.( -.>.o.K 1 = = = = = = = = = = = = = = = = = = = = = = = =   V Y ,.-.o./ $.w.M.M.m.m.M.",
"M.b.M.b.v.4./ Y I J N > = = = = = = = = = = = = = = = = = = = = = = = = = 0 B Y Y R ( d.b.b.M.b.M.b.",
"b.M.b.M.s.%.W R R Y B > = = = = = = = = = = = = = = = = = = = = = = = =   q Z R P R E b.b.b.b.M.M.m.",
"m.m.B.v.=.^ L ( ....J 1 = = = = = = = = = = = = = = = = = = = = = = = = = V Y =._ ^ J j.m.m.m.m.m.m.",
"` _ W Y P E ^ #.$...J 1 = = = = = = = = = = = = = = = = = = = = = = = =   V Y =.#.X.^ Y I Y _ _ ' K ",
"<.<.} [ T E (  .#.| J 1 = = = = = = = = = = = = = = = = = = = = = = = = . V I -...` ( W ' [ 4.4.4.[ ",
"b.M.b.m.( ( ( ( | [ K 1 = = = = = = = = = = = = = = = = = = = = = = = = . V Y -.( ( ( o.8.v.v.v.b.m.",
"M.b.m.b.>.^ P ( ( ^ K 1 = = = = = = = = = = = = = = = = = = = = = = = = . V I ( ( ~ J f.v.v.v.v.b.m.",
"b.M.b.m.,.^ J T / ~ A , = = = = = = = = = = = = = = = = = = = = = = = = . n F ( R R J j.v.v.v.v.m.b.",
"m.b.v.v.$.^ J J ~ E n > = = = = X = = = = = = = = = = = = = = = = = = = . 0 V ( I J J d.b.b.b.b.m.m.",
"M.m.m.m.( T P -.-. .J 1 = = = = - X = = = = = = = = = = = = = = = = = = . B R >.-.] J  .w.m.M.M.m.B.",
">.,.{ ( R R E ` ` _ J 6 = = = = - X . . = O + + + + + + + & = = = = = = . V K ` ` ( ~ E ! ( ,.:.:.( ",
"` [ / T T E ( ~ E U H , = = = = X o . : ; + # * * * * * * & = = = = = = . N G E ~ / ( I Y T ` ` ` T ",
"M.M.M.m.M.5./ J 8 # # o = = = = = * * * * * * * * * * * + = = = = = = = X & % @ F I ( ( 4.m.m.m.M.M.",
"v.v.M.b.k.} I 5 s s r ; = = = = = o + * * * * * * * * * & & & & & = = = X p r r d f I / 4.b.b.M.M.b.",
"6.6.6.6.6.Q C 2 e e a ; = = = = = = o + 4 + + + & & & & + & & & & = = = X p e r i d S U } 6.6.6.6.6.",
"w w w w w i $ y 3 $ & ; = = = = = = = = = = = = = = = = = = = = = = = = X & * # r e @ w w w w w w t ",
"z v x z v k r 4 V.V.V.V.V.V.V.V.V.V.V.V.V.V.V.V.V.V.V.V.V.V.V.V.V.V.V.V.V.V.V.V.4 i r c v v z x v z ",
"g b h g b u a * V.V.V.V.V.V.V.V.V.V.V.V.V.V.V.V.V.V.V.V.V.V.V.V.V.V.V.V.V.V.V.V.* 3 a j b b g j b g "
};
