/* XPM */
static char *xpm_[] = {
/* columns rows colors chars-per-pixel */
"50 50 223 2 ",
"   c #1E142D",
".  c #21162A",
"X  c #22162C",
"o  c #30132E",
"O  c #251D33",
"+  c #271B37",
"@  c #2B1E36",
"#  c #351C35",
"$  c #2C243C",
"%  c #2E283E",
"&  c #42223E",
"*  c #332C44",
"=  c #392A44",
"-  c #372E4A",
";  c #2E304C",
":  c #35334B",
">  c #3A344C",
",  c #3C3652",
"<  c #3D3A53",
"1  c #3E3A5B",
"2  c #4A2C46",
"3  c #44374B",
"4  c #593C42",
"5  c #462951",
"6  c #423E54",
"7  c #423D5B",
"8  c #683D45",
"9  c #3E4255",
"0  c #3B4967",
"q  c #5E4144",
"w  c #43435B",
"e  c #48475A",
"r  c #534759",
"t  c #57515D",
"y  c #684749",
"u  c #754D4C",
"i  c #77564E",
"p  c #7B4C56",
"a  c #695457",
"s  c #735A57",
"d  c #7B5C52",
"f  c #7D635B",
"g  c #454864",
"h  c #494C63",
"j  c #4B4E6A",
"k  c #554F63",
"l  c #4A5168",
"z  c #5E5A64",
"x  c #585768",
"c  c #555A6D",
"v  c #4B5771",
"b  c #555C76",
"n  c #595A76",
"m  c #615C65",
"M  c #615F68",
"N  c #4C607F",
"B  c #5B6175",
"V  c #5C637C",
"C  c #5E697B",
"Z  c #616067",
"A  c #64636D",
"S  c #6C696F",
"D  c #786467",
"F  c #666673",
"G  c #6B6974",
"H  c #686978",
"J  c #716D72",
"K  c #767475",
"L  c #75747A",
"P  c #78777B",
"I  c #79777E",
"U  c #7B7A7C",
"Y  c #84564E",
"T  c #895955",
"R  c #96685E",
"E  c #866A64",
"W  c #89776B",
"Q  c #8A786C",
"!  c #97746A",
"~  c #9E7B6C",
"^  c #957877",
"/  c #B36F6A",
"(  c #A47667",
")  c #A4826F",
"_  c #AC8B73",
"`  c #A38979",
"'  c #BC8B7B",
"]  c #B29378",
"[  c #4B648A",
"{  c #5F6D86",
"}  c #5A7396",
"|  c #636C82",
" . c #686E85",
".. c #637186",
"X. c #697386",
"o. c #6A7589",
"O. c #787682",
"+. c #7C7C84",
"@. c #747A8C",
"#. c #7B7F8B",
"$. c #697A95",
"%. c #717B90",
"&. c #837784",
"*. c #7E818C",
"=. c #7C8193",
"-. c #78889D",
";. c #6A87A6",
":. c #7688A3",
">. c #7E8BA3",
",. c #7B92AB",
"<. c #7D9BB5",
"1. c #858385",
"2. c #82828A",
"3. c #8C8A8E",
"4. c #968A89",
"5. c #868894",
"6. c #848D9A",
"7. c #8C8E9B",
"8. c #978D92",
"9. c #89919B",
"0. c #939295",
"q. c #9B9596",
"w. c #93959C",
"e. c #96999C",
"r. c #9B9C9C",
"t. c #AA9288",
"y. c #B89885",
"u. c #B38D90",
"i. c #A39998",
"p. c #B9A184",
"a. c #B9A388",
"s. c #A3A39F",
"d. c #828DA4",
"f. c #8694A6",
"g. c #8C94A3",
"h. c #8394AB",
"j. c #8A96AB",
"k. c #8E9AAC",
"l. c #949AA3",
"z. c #9C9CA2",
"x. c #929BA9",
"c. c #909FB4",
"v. c #A09FA3",
"b. c #8DA1AF",
"n. c #9DA2A3",
"m. c #9CA2AC",
"M. c #8AA2B6",
"N. c #95A2B2",
"B. c #9CA5B2",
"V. c #9DA9B5",
"C. c #94A7BB",
"Z. c #9DABBC",
"A. c #A4A4A4",
"S. c #A6A9A6",
"D. c #A3A5AA",
"F. c #A8A7A8",
"G. c #A6A9AC",
"H. c #ABACAC",
"J. c #B6AAA7",
"K. c #AFB1AF",
"L. c #B1B2AF",
"P. c #A5AAB3",
"I. c #A4AAB5",
"U. c #AAADB2",
"Y. c #A2ADBA",
"T. c #ADB0B4",
"R. c #A7B3BC",
"E. c #ADB5BC",
"W. c #B2B3B3",
"Q. c #BABBB6",
"!. c #B1B4BA",
"~. c #B5BABC",
"^. c #BABCBC",
"/. c #C3938B",
"(. c #D59E8B",
"). c #C3AB9B",
"_. c #DCA692",
"`. c #D6A895",
"'. c #E5AC93",
"]. c #C6B3A9",
"[. c #D4B3AE",
"{. c #E5BFAA",
"}. c #C4C1BD",
"|. c #ECC6AE",
" X c #F1C8AC",
".X c #97AFC5",
"XX c #9AB3C6",
"oX c #99B5C8",
"OX c #9BB6C8",
"+X c #AEB9C3",
"@X c #A5B8C8",
"#X c #B1BBC3",
"$X c #B4BCC7",
"%X c #BABFC3",
"&X c #A7B1D1",
"*X c #C4BCC3",
"=X c #BCC1C5",
"-X c #B4C0CA",
";X c #BDC5CA",
":X c #BEC9CE",
">X c #BACBD5",
",X c #C2C5C2",
"<X c #C4C9C4",
"1X c #C9CCC7",
"2X c #C0C6C8",
"3X c #C5CCCB",
"4X c #CACECA",
"5X c #C7D0CD",
"6X c #CDD1CD",
"7X c #D2D5CE",
"8X c #D7D8CF",
"9X c #C5CED1",
"0X c #CCD3D2",
"qX c #CAD5DA",
"wX c #CEDFDE",
"eX c #D3D7D1",
"rX c #D6D9D2",
"tX c #D8DBD4",
"yX c #D4DEDD",
"uX c #D9DED9",
"iX c #D4E1DD",
"pX c #DDE2DE",
"aX c #E1E7E4",
/* pixels */
"wXwXwXwX&X&XwXwXwXwXwXwX>X>XwXwXwXwXwXwX>X>XU.A Z M z Z *.!.>X>X>X>X>X>X&X&XwXwXwXwXwXwX>X>XwXwXwXwX",
"wXwXwXwX&X&XwXwXwXwXwXwX>X>XwXwXwXwXwXwXA.I A.E.~.E.b.b.-.o.T.>X>X>X>X>X&X&XwXwXwXwXwXwX>X>XwXwXwXwX",
"wXwXwXwX>X>XwXwXwXwXwXwX>X>XwXwXwXwXwXr.$.V.qXaXqX@XOXoXC.-.@.T.>X>X>X>X>X>XyXwXwXwXwXwX>X>XwXwXwXwX",
"wXwXwXwX>X>XwXwXwXwXwXwX>X>XwXwXwXwXwX2.l.-XXX&XOXOXOXOXoXM.[ z.>X>X>X>X>X>XwXwXwXwXwXwX>X>XwXwXwXwX",
"wXwXwXwX>X>XwXwXwXwXwXwX>X>XwXwXwXwXe.6.@XOX.X.XOXOX.X.XOX<.} ..K.>X>X>X&X&XwXwXwXwXwXwX>X>XwXwXwXwX",
"wXwXwXwX>X>XwXwXwXwXwXwX>X>XwXwXwXz.e v { $.$.;.<.<.<.M.<.;.} 0 r.>X>X>X&X&XwXwXwXwXwXwX>X>XwXwXwXwX",
">X>X>X>X>X>XwXwXwXwXwXwX>X>X>X>X>X>X7.= 5 - , 1 0 v b N [ [ [ 0 n.>X>X>X&X&X>X>X>X>X>X>X&X&X&X&X&X&X",
">X>X>X>X>X>XwXwXwXwXwXwX>X>X>X>X>X>X>X0.o T / T # $ 2 3 ; ; ; l.>X>X>X>X&X&X>X>X>X>X>X>X&X&X&X&X&X&X",
"wXwXwXwX>X>XwXwXwXwXwXwX>X>X>X>XwXwXwXwX].t.' _.( # R (.~ # # a L.wXwXwX>X>XwXwXwXwXwXwX&X&X>X>X>X>X",
"wXwXwXwX>X>XwXwXwXwXwXwX>X>X>X>XwXwXwXr.].t.t. X'.~ ` '.( o e.wXwXwXwXwX>X>XwXwXwXwXwXwX&X&X>X>X>X>X",
"wXwXwXwX>X>XwXwXwXwXwXwX&X&XwXwXwXwXwX1.y.|.|.|. Xu.a T 8 & S.iXwXwXwXwX>X>XwXwXwXwXwXwX&X&X>X>X>X>X",
"wXwXwXwX>X>XwXwXwXwXwXwX&X&XwXwXwXwXwXwXq.J. X X Xy.$ = 2 0.wXwXwXwXwXwX>X>XwXwXwXwXwXwX&X&X>X>X>X>X",
"wXwXwXwX&X&XwXwXwXwXwXwX&X&XwXwXwXwXwXwX>XA.y.'.y.s u p 8.>XwXwXwXwXwXwX>X>XwXwXwXwXwXwX&X&X>X>X>X>X",
"wXwXwXwX&X&XwXwXwXwXwXwX&X&XwXwXwXwXwXwX>X>Xi.p 8 p / / J Q.wXW.U I P K K K K r.wXwXwXwX&X&X>X>X>X>X",
">X>X>X>X&X&X>X>X>X>X>X>X&X&X&X&X&X&X&X&X&X&X;XF.5.i.J.t.*.O.&.e.S.G.G.S.S.S.S.I.&.r.>X>X&X&X&X&X&X&X",
">X>X>X>X&X&X>X>X>X>X>X>X&X&X&X&X&X&X&X&X&X&X>X~.w.Y.9.G G $ X 7.0XuXiXuXuXtXuX3X#.L >X>X&X&X&X&X&X&X",
"wXwXwXwX&X&X>X>XwXwXwXwX&X&X>X>X>X>X>X>X&X&XwXS.n.Y.w.S.S.*.; o.-XtXrXrXrXrXeX4Xg.K wXwX>X>XwXwXwXwX",
"wXwXwXwX&X&X>X>XwXwXwXwX&X&X>X>X>X>X>X>X&X&XwXqXG.G.<XpXuXY.b h I.tXrXeXrXeXeX1X@.J wXwX>X>XwXwXwXwX",
"wXwXwXwX>X>XwXwXwXwXwXwX&X&X>X>X>X>X>X>X>X>X>XyXG.n.pXpX0XZ.... I A.A.F.F.A.v.w.z r.wXwX>X>XwXwXwXwX",
"wXwXwXwX>X>XwXwXwXwXwXwX&X&X>X>X>X>X>X>X>X>X>X>Xl.!.pXqX+Xc.X.9 v j v h r k ..B L wXwXwX>X>XwXwXwXwX",
"wXwXwXwX>X>XwXwXwXwXwXwX>X>X>X>X>X>X>X>X>X>XwXS.7.9X>XN.h.M.o.b h.x.d.o.3 V M.-.+.wXwXwX>X>XwXwXwXwX",
"wXwXwXwX>X>XwXwXwXwXwXwX>X>X>X>X>X>X>X>X>X:XA.A.J.*XB.C B f.o.H +X0X;Xm.H -.-XP.2.wXwXwX>X>XwXwXwXwX",
">X>X>X>X&X&X>X>X>X>X>X>X&X&X>X>XL.J.:XQ.].].y.`.'.u.f.-.c c c | -XpXpX5X$X:XtX2X#.>X>X>X&X&X>X>X>X>X",
">X>X>X>X&X&X>X>X>X>X>X>X&X&X>XK.i.t.t.) /.(.(.(.' ^ ,.@XB.c X | #X0X0X0X9X9X3XT.+.>X>X>X&X&X>X>X>X>X",
"wXwXwXwX>X>X>X>XwXwXwXwX>X>X~.@.8.D x E ).[.[.u.W ,.XX>X$X-.w H C.Y.Y.XXZ.Z.Z.k.I wXwXwX>X>XwXwXwXwX",
"wXwXwXwX>X>X>X>XwXwXwXwX>X>X=.-.j 3 x 1.:X>XwXP.[ $.d.g.6.X.7.k.{ X.o.....| ..2.W.wXwXwX>X>XwXwXwXwX",
"wXwXwXwX>X>XwXwXwXwXwXwX>X>XW.=.w 3.F.*X>X>XwXI.2 a D s y 4 H.wXG.S.F.S.A.A.A.T.wXwXwXwX>X>X>X>XwXwX",
"wXwXwXwX>X>XwXwXwXwXwXwX>X>X>Xw.w *XwXwX>X>XwXU.s ! ! ) ~ u G.iXyXwXwXwX>X>XwXwXwXwXwXwX>X>X>X>XwXwX",
"wXwXwXwX>X>XwXwXwXwXwXwX>X>XwXn.w ^.wXwX>X>XwXT.) ` W ) ! & 4.W.G.S.K.wX>X>XwXwXwXwXwXwX>X>XwXwXwXwX",
"wXwXwXwX>X>XwXwXwXwXwXwX>X>XW.A $ ^.wXwX>X>XwXR.K a.` f q $ < h w : 9 z.>X>XwXwXwXwXwXwX>X>XwXwXwXwX",
">X>X>X>X&X&X>X>X>X>X>X>X&X&XI A x >X>X>X&X&X>XK.W ] ] ) $ O $ O $ $ z s.&X&X>X>X>X>X>X>X&X&X>X>X>X>X",
">X>X>X>X&X&X>X>X>X>X>X>X&X&XO.^.N.B.>X>X@X@X>XR.Q a.] E t x % A 1.0.H.>X&X&X>X>X>X>X>X>X&X&X>X>X>X>X",
"wXwXwXwX>X>XwXwXwXwXwXwX>X>Xe.T.k.X.S.iX>X>XwXW.Q a.] d 3.l.X.z.wXwXwXwX>X>XwXwXwXwXwXwX>X>XwXwXwXwX",
"wXwXwXwX>X>XwX3XQ.Q.0X0XQ.K.5X9.G I.5.U.>X>XwXE.Q y.] d , $.c.w.F.wXwX9X;X:X,X,X5XwXwXwX>X>XwXwXwXwX",
"wXwXwXwX>X>XwXJ $ w h h : $ ~.6.=XS.G.m.T.>XwXT.Q p.] d C h.6.U.U.A.e., e l h 9 * U wXwX>X>XwXwXwXwX",
"wXwXwXwX>X>XS * b x.V.B.C L I.G H.eXD.U.m.~.wXH.Q ] _ d %.g.^.T.N.m.c =.V.Y.V.g.B = S wX>X>XwXwXwXwX",
"wXwXwXwX>XA : S Y.4XtXtXO.;X#., * H.0XP.U.I.W.z.Q p._ i g R.0Xw.c j.N.Y.tXrXeX0XY.F > G &X&X>X>XwXwX",
"wXwXwX5Xt 1 A T.7X8XtX1Xe.V.d.C e % A.yXT.F.Y.j Q y._ i m Q.G.* j 6.B.I.4XrXtXtX0XT.A , K &X>X>XwXwX",
">X>X>Xk > @.~.x.^.tX1Xe.%Xx.Z.+X#.< r.&X&XT.g.>.4.y._ i S.eX0.e d.x.B.E.m.,X4XeXE.m.^.F k e.&X&X>X>X",
">X>X>XO.v #X6X8XP.#Xw.%Xj.;XeXtXY.n @ L.&X&X!.>.q.] _ i r.w.% ..+XuXW.F.E.5.U.$XU.rX6XG.: K &X&X>X>X",
"wXwXwX+.n %X6X8XtX+.$X6.XX0XrXtXE.V $ W.&X&X>XP.f ~ R u 6 H 2.g.$XuXuX^.w.qX$X#.eX8X8X~.> K >X>XwXwX",
"wXwXwXO.n ^.7X8XeX2.j.| Y.6XtX8X#XB @ L.&X&X>Xz.> y Y y V Y.<X<X<X,X,X!.V.c.d.5.rX8X8X^.> K >X>XwXwX",
"wXwXwXO.b ,X8X8X1Xw.O.I %XeX8X8XE.B @ H.>X:Xz.n n 6 * $ j v + w H &. .k n P &.C.6X8X8X^.> K wXwXwXwX",
"wXwXwXO.6 !.7X1XV.2X7XeXP.%X7XtXP.k z Q.>X1.b n 6 w g w k L z V +X0X+Xk.!.8X3Xj.E.5X6XS.r 3.wXwXwXwX",
"wXwXwXz.w b H.B.3XrXeX8X8Xz..X%XI M W.>X>XF.% - > > , % A.&XT.* w.!.k.+XrXrX8X6Xk.B.H.> K >XwXwXwXwX",
"wXwXwXwX&.e 1 W.7X8X8X8X8X4XE.F @ K.>X>X>XU.5.d.-.d.d.@.H.&XW.r - L 1X8XrX8X8XrX6XS.* r 1.>XwXwXwXwX",
">X>X>X>X&X*.7 7 H.4X1X4X<X*.7 z z ^.>X>X>X>X3Xi.t r S.>X&X&X>XR.> > 5.<X3X1X7X4XH.: > U &X&X>X>X>X>X",
">X>X>X>X&X&X&.> > >.-.$.h > * U.>X>X>X>X>X>X>X>X>X>X>X>X&X&X>X>X!.. % 7 | ..n g > O K >X&X&X>X>X>X>X",
"wXwXwXwX&X&X>XO.O X X X X X ,X>X>X>X>X>X>X>X>X>X>X>X>X>X&X&XwXwXwXwXA.  X X X X K yXwXwX>X>XwXwXwXwX",
"wXwXyXd.>.d.,.h.h.h.h.h.j.h.h.h.,.h.h.h.h.h.h.h.h.h.h.h.h.h.j.j.h.d.h.h.h.h.h.h.h.h.h.f.d.N.wXwXwXwX"
};
