/* XPM */
static char *xpm_[] = {
/* columns rows colors chars-per-pixel */
"50 50 215 2 ",
"   c #00141D",
".  c #021E25",
"X  c #161C24",
"o  c #1B1A24",
"O  c #291826",
"+  c #371D28",
"@  c #082226",
"#  c #14292C",
"$  c #1F2D30",
"%  c #1C343A",
"&  c #242328",
"*  c #3A242D",
"=  c #24393C",
"-  c #393237",
";  c #46171C",
":  c #451920",
">  c #43232D",
",  c #4A292E",
"<  c #5A362D",
"1  c #472731",
"2  c #553132",
"3  c #583936",
"4  c #662D2C",
"5  c #68373A",
"6  c #29403F",
"7  c #57433A",
"8  c #5F513F",
"9  c #654738",
"0  c #754A38",
"q  c #253D42",
"w  c #323D44",
"e  c #413C40",
"r  c #2B4346",
"t  c #354649",
"y  c #3B4D4D",
"u  c #3E504E",
"i  c #3A4C52",
"p  c #3C5155",
"a  c #3A555B",
"s  c #584949",
"d  c #454D53",
"f  c #4E4C50",
"g  c #445556",
"h  c #49565A",
"j  c #465B5D",
"k  c #555B5D",
"l  c #6B4F49",
"z  c #795744",
"x  c #695A57",
"c  c #775857",
"v  c #786254",
"b  c #535C64",
"n  c #4A6168",
"m  c #596567",
"M  c #5B6B6D",
"N  c #5E6D70",
"B  c #59737A",
"V  c #656868",
"C  c #786865",
"Z  c #6F716F",
"A  c #676D73",
"S  c #677375",
"D  c #6D7A7B",
"F  c #717273",
"G  c #737C7D",
"H  c #797978",
"J  c #8F593C",
"K  c #99623F",
"L  c #874242",
"P  c #855B47",
"I  c #9D544D",
"U  c #876548",
"Y  c #976748",
"T  c #876855",
"R  c #956956",
"E  c #977454",
"W  c #997552",
"Q  c #A7664A",
"!  c #AA675D",
"~  c #B46653",
"^  c #866E66",
"/  c #947B68",
"(  c #867A78",
")  c #937172",
"_  c #BA7C6A",
"`  c #A77A78",
"'  c #CE745C",
"]  c #C17D68",
"[  c #75807F",
"{  c #AD865D",
"}  c #B28559",
"|  c #94806D",
" . c #8C827D",
".. c #9B8775",
"X. c #B78A67",
"o. c #BE976B",
"O. c #A98772",
"+. c #AA8874",
"@. c #C6896B",
"#. c #C39A65",
"$. c #C19968",
"%. c #C78D72",
"&. c #CC9175",
"*. c #E19C6F",
"=. c #C9A16D",
"-. c #CFAC78",
";. c #D0AD7B",
":. c #E5A477",
">. c #6A7E87",
",. c #877F80",
"<. c #6C8284",
"1. c #728383",
"2. c #768688",
"3. c #738C8C",
"4. c #7D8B8B",
"5. c #7B938F",
"6. c #729095",
"7. c #7C9393",
"8. c #878787",
"9. c #938885",
"0. c #929189",
"q. c #839592",
"w. c #869797",
"e. c #8B9A9B",
"r. c #979797",
"t. c #959895",
"y. c #959A99",
"u. c #AE8B81",
"i. c #A59688",
"p. c #BB9883",
"a. c #AA9A98",
"s. c #B99B94",
"d. c #8DA09C",
"f. c #98A19E",
"g. c #A6A19E",
"h. c #B5A496",
"j. c #889CA1",
"k. c #9394A1",
"l. c #94A5A3",
"z. c #9CA5A5",
"x. c #9BABA6",
"c. c #95A7A8",
"v. c #9CADA9",
"b. c #9FB0AB",
"n. c #A5A6A3",
"m. c #A4AEAE",
"M. c #AAADAC",
"N. c #B1A9A7",
"B. c #A3B2AC",
"V. c #AEB1AD",
"C. c #B6B3AE",
"Z. c #A4B5B1",
"A. c #ACB4B3",
"S. c #ACBBB6",
"D. c #AAB6BB",
"F. c #B4B7B5",
"G. c #BBBAB3",
"H. c #B5BBBA",
"J. c #C29F95",
"K. c #CBA983",
"L. c #D5AB8D",
"P. c #C6A697",
"I. c #C3A49B",
"U. c #CFB197",
"Y. c #DAB799",
"T. c #E4AF89",
"R. c #F3B888",
"E. c #E3B89A",
"W. c #CAB0A2",
"Q. c #C5BDB9",
"!. c #E1BEA6",
"~. c #AFC2BF",
"^. c #B8C2BD",
"/. c #DEC49C",
"(. c #F1C69B",
"). c #C1C0BC",
"_. c #EBC8A9",
"`. c #F4CCA5",
"'. c #E8D5B7",
"]. c #F6DCB9",
"[. c #A6B0CB",
"{. c #B3BDC4",
"}. c #A7B1D1",
"|. c #B7C3C1",
" X c #B7C7C9",
".X c #BDCBCC",
"XX c #BFD1CC",
"oX c #BACBD5",
"OX c #C4C8C5",
"+X c #C4CBCA",
"@X c #C9CDCB",
"#X c #C5D0CD",
"$X c #CBD3CD",
"%X c #D1D3CE",
"&X c #C7CDD0",
"*X c #C6D2D3",
"=X c #CBD5D3",
"-X c #CEDFDE",
";X c #D2DAD5",
":X c #D7DAD7",
">X c #D4DBDA",
",X c #D6E0DC",
"<X c #DCE2DD",
"1X c #E1E2DC",
"2X c #D9DFE1",
"3X c #DEE5E4",
"4X c #E2E5E2",
"5X c #E2E9E4",
"6X c #E9ECE5",
"7X c #E5EBE9",
"8X c #EAEFEC",
"9X c #E9EFF1",
"0X c #EDF2F3",
"qX c #F5F8F8",
"wX c #F6FAF9",
/* pixels */
"-X-X-X-X}.}.-X-X3X-X-X-XoXoX-X-X-X-X-X-XoXoX-X-XV.V.-X-XoXoXoXoXoXoXoXoX}.}.-X-X-X-X-X-XoXoX-X-X-X-X",
"-X-X-X-X}.}.-X-X-X-X-X-XoXoX-X-X-X-X-X-XoX.Xr.H.{.OXr.r..XoXoXoXoXoXoXoX}.}.-X-X-X-X-X-XoXoX-X-X-X-X",
"-X-X-X-XoXoX-X-X-X-X-X-XoXoX-X-X-X-X-X-X8.g.+X7X@X|.>X@Xg.( oXoXoXoXoXoXoXoX3X-X-X-X-X-XoXoX-X-X-X-X",
"-X-X-X-XoXoX-X-X-X-X-X-XoXoX-X-X-X-X-XC A &XS.6X8.n 9Xv.&XA C oXoXoXoXoXoXoX-X-X-X-X-X-XoXoX-X-X-X-X",
"-X-X-X-XoXoX-X-X-X-X-X-XoXoX-X-X-X0.L >.0X@Xq =Xr.a 7X@ +X0Xw.4 0.oXoXoX}.}.-X-X-X-X-X-XoXoX-X-X-X-X",
"-X-X-X-XoXoX-X-X-X-X-X-XoXoX-X-XA.5 H 3X=X@Xr $XH.v.5X% OX;X3X8.3 C.oXoX}.}.-X-X-X-X-X-XoXoX-X-X-X-X",
"oXoXoXoXoXoX-X-X-X-X-X-XoXoXoXoXoXH C.>X|.4XH.<X+X X7XH.:X|.2XH.F oXoXoX}.}.oXoXoXoXoXoX}.}.}.}.}.}.",
"oXoXoXoXoXoX-X-X-X-X-X-XoXoXoXoX( k ^.;XM +X8X:XD h 1X6XOXM $X{.k ( .XoX}.}.oXoXoXoXoXoX}.}.}.}.}.}.",
"-X-X-X-XoXoX-X-X-X-X-X-XoXoXoXoXg.t #X X$ f.8X$Xk   1X5Xf.# A.@Xr r.,X-XoXoX-X-X-X-X-X-X}.}.oXoXoXoX",
"-X-X-X-XoXoX-X-X-X-X-X-XoXoXoXoXN.V d.6Xp [ =X$Xk   6X#XS j 3X5.k g.-X-XoXoX-X-X-X-X-X-X}.}.oXoXoXoX",
"-X-X-X-XoXoX-X-X-X-X-X-X}.}.-X-X[ k q.b.S.m ^.#Xk @ 7Xv.j ~.B.q.n Z -X-XoXoX-X-X-X-X-X-X}.}.oXoXoXoX",
"-X-X-X-XoXoX-X-X-X-X-X-X}.}.-X-X).Z 3.d.^.l.B.$X1.y.#Xx.d.~.f.[ V ^.-X-XoXoX-X-X-X-X-X-X}.}.oXoXoXoX",
"-X-X-X-X}.}.-X-X-X-X-X-X}.}.-X-XP...[ d.q.Z.B.#X;X;XZ.b.B.5.d.[  .h.-X-XoXoX-X-X-X-X-X-X}.}.oXoXoXoX",
"-X-X-X-X}.}.-X-X-X-X-X-X}.}.-X>XX.O.@ 3.u d.B.B.B.~.b.b.d.g 2.= +.+.-X-XoXoX-X-X-X-X-X-X}.}.oXoXoXoX",
"oXoXoXoX}.}.oXoXoXoXoXoX}.}.}.}.p.Q < % 5.d.x.b.v.v.x.c.d.e.q 4 ~ +.oXoX}.}.oXoXoXoXoXoX}.}.}.}.}.}.",
"oXoXoXoX}.}.oXoXoXoXoXoXC.C.Q.}.}._ L o 6 [ 3.5.7.7.3.3.S = O I +.oX*X).C.C.oXoXoXoXoXoX}.}.}.}.}.}.",
"-X-X-X-X}.}.oXoX-X+XQ.N.K.U.! y.n.j.d + 1 t h h j j j p w > > d M.m.y.! W.I.I.a.t.,X-X-XoXoX-X-X-X-X",
"-X-X-X-X}.}.oXoXH 1..._.].].3 e.3X7X>Xe > 1 + + O O + O 1 > w 4X7X3Xj.5 ].]._...B G -X-XoXoX-X-X-X-X",
"-X-X-X-XoXoX-X-XG % L *.R.R.O r >.>.7.>.X + > , > 2 > + O o N 7.<.>.1 4 (.R.:.T r g -X-XoXoX-X-X-X-X",
"-X-X-X-XoXoX-X-X,XV ^ X.(.:.@.a.1X1X1X>.v.- O O 1 + + & d {.m 3X<X3Xg.K.R.`.%.c V -X-X-XoXoX-X-X-X-X",
"-X-X-X-XoXoX-X-X-X-X-Xu.Y._ a.>X%XF.H.m m.b 2 5 + o L c >.A.h H.H.%X1Xn.' E.,.-X-X-X-X-XoXoX-X-X-X-X",
"-X-X-X-XoXoX-X-X-X-X-Xh.Y._ 1X%XF.@X^ h.V M.~ ' ~ ~ ' _ m.C i.V &XV.OX1X] !.J.-X-X-X-X-XoXoX-X-X-X-X",
"oXoXoXoX}.}.oXoXoXoXoXI.!.@.=Xy.9XwX9.K.,.>XJ.R.R.R.R.W.>X,.K.8.wX0Xk.&X*.!.s.oXoXoXoXoX}.}.oXoXoXoX",
"oXoXoXoX}.}.oXoXoXoXoXI.E.'.D  X0XwX,.$.( wX;Xe.r.w.j.oXwX,.=.( wX0X&Xq.'.!.J.oXoXoXoXoX}.}.oXoXoXoX",
"-X-X-X-XoXoXoXoX-X-X-XI.!.C 0X|..X0XQ.W ..$XqXwXwXqXwXwX;X/ E V.qX+X~.0XZ _.J.@X-X-X-X-XoXoX-X-X-X-X",
"-X-X-X-XoXoXoXoX-X-X-XW.T.R 0X+XB.#X8Xx { f.<X5X7X7X3X3Xn.} 2 0X.XZ.+X0X^ T.P.oX-X-X-X-XoXoX-X-X-X-X",
"-X-X-X-XoXoX-X-X-X-X-Xh.L.@.C.;X~.5.#XF.U / e.d.r.y.y.y.( P Z.*Xw.S.=XF.&.L.s.-X-X-X-X-XoXoXoXoX-X-X",
"-X-X-X-XoXoX-X-X-X-X-Xa.@.:.! F M V.w.*XV.z { o.o.#.o.O.9 D.-Xw.M.m A ~ :.=.r.-X-X-X-X-XoXoXoXoX-X-X",
"-X-X-X-XoXoX-X-X-X-X-X-XN.) ` OX,X1XS 7.|...].'.'.'._.'.i.~.e.F 4X-X-Xa.) g.-X-X-X-X-X-XoXoX-X-X-X-X",
"-X-X-X-XoXoX-X-X-X-X-X-XoXoX>X-X,X<XF 7.6.../.-.-.-.-.Y...q.3.H 3X3X>X-XoXoX-X-X-X-X-X-XoXoX-X-X-X-X",
"oXoXoXoX}.}.oXoXoXoXoXoX[.[.oXoXV.oX( 8 M E =.#.#.o.#.#.E >.3 ( oXoXoXoX}.}.oXoXoXoXoXoX}.}.oXoXoXoX",
"oXoXoXoX}.}.oXoXoXoXoXoX}.}.oXoXT ..s W 9 U #.#.#.#.#.o.U < E s i.| oXoX}.}.oXoXoXoXoXoX}.}.oXoXoXoX",
"-X-X-X-XoXoX-X-X-X-X-X-XoXoX-Xv X.E P 0 z 3 v v 8 8 Y x 3 0 l T / #.C >XoXoX>X-X-X-X-X-XoXoX-X-X-X-X",
"-X-X-X-XoXoX-X-X-X-X-X-XoXoX-X3 Y u.x E , 9 z * Q Y - 0 z 2 W l i.Y 7 -XoXoX-X-X-X-X-X-XoXoX-X-X-X-X",
"-X-X-X-XoXoX-X-X-X-X-X-XoXoX-Xz.4 u.` : s 9.Y K Y Y J J ^ f ; ` M.< z.}.}.}.oXoX-X-X-X-XoXoX-X-X-X-X",
"-X-X-X-XoXoX-X-X-X-X-X-XoXoX-XD.>.x +Xk.A oXj p p p a V oXV k.{.x H A.}.}.}.oXoX-X-X-X-XoXoX-X-X-X-X",
"-X-X-X-XoXoX-X-X-X-X-X-XoXoX-X-Xc.V f b 2.}.q.g u y i -XoXj.m f A l.oXoXoXoXoXoXoXoX}.}.}.}.oXoX-X-X",
"-X-X-X-XoXoX-X-X-X-X-X-XoXoX=X-Xz.>.B B }.[.3.D @ @ [ -XoXoXn B <.M.oXoXoXoXoXoXoXoX}.}.}.}.oXoX-X-X",
"oXoXoXoX}.}.oXoXoXoXoXoX}.}.}.}.}.}.}.}.}.}.4.}.q % m.}.}.}.oXoX}.}.oXoXoXoXoXoXoXoXoXoXoXoX}.}.oXoX",
"oXoXoXoX}.}.oXoXoXoXoXoX}.}.}.}.}.}.}.}.}.[.}.}.a r C.}.}.}.oXoX}.}.oXoXoXoXoXoXoXoXoXoXoXoX}.}.oXoX",
"-X-X-X-XoXoX-X-X-X-X-X-X}.}.}.}.}.}.oXoX}.}.oXoXu r G.oX<.V M 4.oXoXoXoXoXoXoXoXoXoXoXoXoXoXoXoX-X-X",
"-X-X-X-XoXoX-X-X-X-X-X-X}.}.}.}.}.}.oXoX}.}.oXoXg t G.oXM [.OX-XoXoXoXoXoXoXoXoXoXoXoXoXoXoXoXoX-X-X",
"-X-X-X-XoXoX-X-X-X-X-X-X}.}.}.}.oXoX}.}.oXoXoXoXy 6 G.oXA }.-X-X-X-XoXoXoXoXoXoXoXoX-X-XoXoX-X-X-X-X",
"-X-X-X-XoXoX-X-X-X-X-X-X}.}.}.}.oXoX}.[.oXoXoXh y r m  XA 4.#X0.-X-XoXoXoXoXoXoXoXoX-X-XoXoX-X-X-X-X",
"-X-X-X-XoXoX-X-X-X-X-X-X}.}.oXoXoXoXoXoXoXoXoXD.y % oXoX}.}.-X-X-X-X-X-XoXoXoXoX-X-XoXoXoXoX-X-X-X-X",
"-X-X-X-XoXoX-X-X-X-X-X-X}.}.oXoXoXoXoXoXoXoXn.y.6 # oXoX}.}.-X-X-X-X-X-XoXoXoXoX-X-XoXoXoXoX-X-X-X-X",
"oXoXoXoX}.}.oXoXoXoXoXoX}.}.oXoXoXoXoXoXoXoXoXq.% # oXoX}.}.oXoXoXoXoXoX}.}.oXoXoXoXoXoX}.}.oXoXoXoX",
"oXoXoXoX}.}.oXoXoXoXoXoX}.}.oXoXoXoXoXoXoXoX#X4.# @ oXoX}.}.oXoXoXoXoXoX}.}.oXoXoXoXoXoX}.}.oXoXoXoX",
"-X-X-X-X}.}.oXoX-X-X-X-XoXoXoXoXoXoXoXoXoXoXoXw.@ . .XoX}.}.-X-X-X-X-X-X}.}.oXoX-X-X-X-XoXoX-X-X-X-X",
"-X-X-X-X}.}.oXoX-X-X-X-XoXoXoXoXoXoXoXoXoXoXoXC.8.8.oXoX}.}.-X-X-X-X-X-X}.}.oXoX-X-X-X-XoXoX-X-X-X-X"
};
