/* XPM */
static char *_f55f2a67fea47f8ead4e898f5640620Ug5t1bPWfuwyZ9oo[] = {
/* columns rows colors chars-per-pixel */
"32 32 188 2 ",
"   c #381623",
".  c #351C27",
"X  c #3D1E2A",
"o  c #3B222B",
"O  c #373237",
"+  c #43242C",
"@  c #412934",
"#  c #6D4E3D",
"$  c #72503E",
"%  c #3D3E44",
"&  c #394A4E",
"*  c #434045",
"=  c #484C50",
"-  c #495859",
";  c #654A40",
":  c #7A5441",
">  c #614C54",
",  c #655A54",
"<  c #695A54",
"1  c #54605E",
"2  c #78685E",
"3  c #4F6466",
"4  c #526263",
"5  c #5C6567",
"6  c #5D6770",
"7  c #5D6B75",
"8  c #616A6E",
"9  c #736263",
"0  c #7B6C62",
"q  c #7E7064",
"w  c #687678",
"e  c #6C7A7D",
"r  c #717773",
"t  c #7A7877",
"y  c #737C7B",
"u  c #855E44",
"i  c #8C5B41",
"p  c #975347",
"a  c #9E5C4C",
"s  c #88644A",
"d  c #90614A",
"f  c #856C5B",
"g  c #9C7B56",
"h  c #A37F59",
"j  c #867668",
"k  c #807573",
"l  c #817B7A",
"z  c #947E74",
"x  c #A46B62",
"c  c #8C827A",
"v  c #998478",
"b  c #A38466",
"n  c #AA896A",
"m  c #B7856E",
"M  c #A58C76",
"N  c #A4827D",
"B  c #B38A77",
"V  c #BA9B78",
"C  c #BFA47F",
"Z  c #C39B67",
"A  c #C68E78",
"S  c #CC9A7D",
"D  c #DA9B71",
"F  c #C8A26F",
"G  c #DEA177",
"H  c #6E7C89",
"J  c #737E80",
"K  c #817D83",
"L  c #768284",
"P  c #778786",
"I  c #77838C",
"U  c #7B8789",
"Y  c #7C8D8B",
"T  c #7E918D",
"R  c #7B8797",
"E  c #7D9292",
"W  c #828484",
"Q  c #838B8B",
"!  c #8D8D8F",
"~  c #968A85",
"^  c #8C9592",
"/  c #89969B",
"(  c #8F979A",
")  c #939593",
"_  c #9A9B96",
"`  c #9A999D",
"'  c #A38282",
"]  c #AB988F",
"[  c #B49F8C",
"{  c #B99D8A",
"}  c #A29A97",
"|  c #B99E93",
" . c #8CA29C",
".. c #90A29C",
"X. c #B8A187",
"o. c #A4A19F",
"O. c #B4A594",
"+. c #969DA2",
"@. c #959FB7",
"#. c #B19EA9",
"$. c #92A6A1",
"%. c #9BA2A3",
"&. c #9EAAAA",
"*. c #9FB0AB",
"=. c #A2A6A4",
"-. c #A6A3A9",
";. c #A3ABAC",
":. c #AAACAC",
">. c #B0A7A7",
",. c #A4B2AE",
"<. c #A2ACB2",
"1. c #ACB5B4",
"2. c #ABBBB6",
"3. c #ACBABA",
"4. c #B1B7B7",
"5. c #B2BAB7",
"6. c #B3BDBA",
"7. c #BABCB9",
"8. c #C19C90",
"9. c #D5A389",
"0. c #CBA997",
"q. c #CBAA9B",
"w. c #CCB49F",
"e. c #E3AD86",
"r. c #E7B48D",
"t. c #ECBE97",
"y. c #C5AEA1",
"u. c #CCB8A8",
"i. c #C0BBB9",
"p. c #B5C2BF",
"a. c #BCC1BE",
"s. c #C3C2BD",
"d. c #E0C7A2",
"f. c #E1C9A4",
"g. c #F4CDA4",
"h. c #E5D2AF",
"j. c #F6D4AC",
"k. c #9BA6C2",
"l. c #A3ACCC",
"z. c #A5B1C6",
"x. c #AEB2C6",
"c. c #ACBCC6",
"v. c #A6B1CB",
"b. c #ACB4CC",
"n. c #ADB9CB",
"m. c #B4BEC7",
"M. c #A6AFD1",
"N. c #A7B1D1",
"B. c #A9B4D2",
"V. c #AEBAD2",
"C. c #B1BED3",
"Z. c #B7C4C2",
"A. c #BBC3C3",
"S. c #BEC9C6",
"D. c #B5C4CD",
"F. c #B9C7CC",
"G. c #BDCCCD",
"H. c #B5C3D4",
"J. c #B8C8D5",
"K. c #BBCBD5",
"L. c #BFCDD9",
"P. c #BFD0D7",
"I. c #BFD1D8",
"U. c #C3C6C5",
"Y. c #C1CFCE",
"T. c #CDCECE",
"R. c #D0CECD",
"E. c #C1D0CF",
"W. c #CBD2CF",
"Q. c #D2D1CC",
"!. c #C6CFD5",
"~. c #C3D2D3",
"^. c #CBD5D4",
"/. c #C4D5DA",
"(. c #C7D8DB",
"). c #CDDEDE",
"_. c #D3D5D6",
"`. c #D8DBD7",
"'. c #D1DAD8",
"]. c #D8DDDB",
"[. c #CFE0DE",
"{. c #D4E1DE",
"}. c #E1E4DE",
"|. c #D0E2E1",
" X c #DEE4E2",
".X c #E2E6E3",
"XX c #E2E7E9",
"oX c #E6EDED",
/* pixels */
").).L.B.[.).).).J.).).).).J.E.a.7.G.J.J.J.J.K.N./.[.).).K.(.).).",
").)./.J.).).).).J.).).).^.%.U.W.S.U.` D.J.J.J.J.).[.).).J.(.).).",
").)./.J.).).).).J.).).7.l S.&.:.( %.U.W <.J.J.H.).).).).J.(.).).",
").)./.J.).).).).J.).7.9 ^.^.y A.6.L W.'.9 4.J.B./.).).).J./.).).",
"J.J.J.K.[.).).).J.J.<.) ^.A.`.5.1.`.6.W.) <.J.N.H.J.J.J.B.N.M.M.",
").)./.K.).).[.).J.J.:.^ Z.y .XQ W }.t 1.^ =.).J.).).).).B.H.J.J.",
").)./.J.).).)./.V.)._ e p.y S.Q Q A.e 6.w ) [.J.).).).[.B.H.J.J.",
").)./.J.).).)./.N.[.s.y ..,.2.;.1.,.;.$.w 7.[.J.).).).[.B.H.J.J.",
").).L.B.[.).)./.N.[.{ 2 P Y ,.6.6.*.Y L j O.[.J.).).).[.B.H.J.J.",
"J.J.H.B.J.J.J.J.x.b.#.p O T ..$.$. .E % a >.J.x.J.J.J.J.B.N.N.N.",
").).L.B.J.(.7.y.0.' <.W o * 4 4 3 - % @ ! 1.~ w.y.o.~.).J./.).).",
").)./.C./.y q t.g.= 3.Z.6   X X o .   4 S.1.> j.t.0 8 |.J./.).).",
").)./.J.).E.k S e.B Q.`.U e . + o O Q J `.Q.{ r.9.k Y.[.K./.).).",
").).(.J.[.[.|.| A Q.U.:.~ ! a p p x ( c :.a.T.A 8.|.[.[.J.(.).).",
"J.J.H.B.J.J.J.q.9.7.XXR.C A.q.e.e.u.A.X.T.XX6.9.0.J.J.K.B.H.K.J.",
"(.(./.H.J.(.).q.[ ~.^.`.b s.oX X XoXU.b _.'.^.O.q.I.(.).H./.(.(.",
").).(.J./.).[.q.m ].2.^.~ v ^.^.^.^.M l ^.2.].B 0./.).).K./.).).",
").).(.K.).).[.| D N U &.S.c n V V M c G.=.P N G ] [.).).J.J.K.).",
").).(.K.[.).).^.-.i.{.7.E _ h.d.d.f.} E 7.{.U.-.^.).[.[.K.(.[.[.",
"K.K.H.B.K.J.J.J.B.J.4.;., q F Z Z F j , ;.J.J.B.J.K.K.J.B.H.K.K.",
"/./.K.H././././.C.F.b f u # h g g g # s j M F.C././././.H.J././.",
").)./.K.).).).).J.6.d v s ; : i u $ ; s z s 3.J.(.).).).K./.).).",
").)./.K.).).).).J.~.t } K +.< < , 2 ( K ` t z.N.H./.).{.K./.).).",
").)./.K.[.).).).J.).&.5 6 k.U & & G.c.6 5 &.J.J.J.J.J.B.N.H.K.).",
"P.P.H.V.P.P.P.J.V.C.v.k.k.B./ 7 5 n.V.c.z.b.J.K.K.J.J.H.H.C.V.P.",
"/./.J.V./././.J.N.N.N.B.V.v.V.H r n.@.<.n.C.K.K.K.J.J.J.J.H.C./.",
").)./.J.).).)./.N.N.B.C.J.N.J.I r F.R A.~.J.J.J.K.J.J.K.K.K.P.).",
").)./.J.[.[.[./.N.N.J.C.B.K.D.7 5 m.I ~.E.).J.J.K.J.K.{.J./.).[.",
").)./.K.).).)./.N.J.J.J.J.K.D.w e J.l.(.).).).J.K./.).K.J./.).[.",
"/./.J.C./././.J.N.J.J.J.K.K.3.1 e J.N././././.V.J.K./.J.C.J././.",
"P.K.H.B.J.K.K.J.B.J.J.J.K.K.D.- w J.N.J.K.K.K.N.H.K.P.P.V.H.K.K.",
").[.!.B.J.).).).J.J.J.J.K.K.F.W ( J.M.).).).[.N.H./.).[.K./.).)."
};
