/* XPM */
static char *xpm_[] = {
/* columns rows colors chars-per-pixel */
"50 50 185 2 ",
"   c #0F0F10",
".  c #100F10",
"X  c #121213",
"o  c #181717",
"O  c #191718",
"+  c #1D1B1B",
"@  c #211E1E",
"#  c #211F21",
"$  c #252222",
"%  c #2A2626",
"&  c #2E2927",
"*  c #2A272F",
"=  c #2D2A2A",
"-  c #342825",
";  c #322E2D",
":  c #2D2731",
">  c #2E2932",
",  c #342B33",
"<  c #3B2D34",
"1  c #363232",
"2  c #3B3435",
"3  c #3A3638",
"4  c #3A3A39",
"5  c #3E3A3B",
"6  c #44312C",
"7  c #422F34",
"8  c #443235",
"9  c #4C3436",
"0  c #403A37",
"q  c #4F3832",
"w  c #443239",
"e  c #4D3539",
"r  c #433E3E",
"t  c #493A3D",
"y  c #523536",
"u  c #593736",
"i  c #543937",
"p  c #5B3C37",
"a  c #533639",
"s  c #5A3738",
"d  c #54393A",
"f  c #5C3B3A",
"g  c #633D3A",
"h  c #693F3C",
"j  c #46403F",
"k  c #4A413D",
"l  c #52403B",
"z  c #5C433B",
"x  c #5D483E",
"c  c #66413A",
"v  c #6C413C",
"b  c #72433E",
"n  c #79463F",
"m  c #4F3540",
"M  c #433F41",
"N  c #513640",
"B  c #563840",
"V  c #5D3D42",
"C  c #623F44",
"Z  c #683F41",
"A  c #683F49",
"S  c #464242",
"D  c #4A4544",
"F  c #4E4945",
"G  c #4D4749",
"H  c #4E4949",
"J  c #564444",
"K  c #5C4343",
"L  c #534B46",
"P  c #584748",
"I  c #534C4C",
"U  c #584E4A",
"Y  c #4A504F",
"T  c #565147",
"R  c #52524D",
"E  c #5B524E",
"W  c #554F50",
"Q  c #4C5554",
"!  c #555151",
"~  c #5B5453",
"^  c #5D5851",
"/  c #525A59",
"(  c #664143",
")  c #6D4243",
"_  c #6E4449",
"`  c #6A4D48",
"'  c #744442",
"]  c #794541",
"[  c #7B4641",
"{  c #7E4842",
"}  c #7F4842",
"|  c #744649",
" . c #74464D",
".. c #78474A",
"X. c #7B4A4D",
"o. c #7B494E",
"O. c #665046",
"+. c #6E574D",
"@. c #715045",
"#. c #785A4E",
"$. c #664D53",
"%. c #734751",
"&. c #744A52",
"*. c #7C4B52",
"=. c #615651",
"-. c #645953",
";. c #695B54",
":. c #635B58",
">. c #6A5F5A",
",. c #785C50",
"<. c #53605E",
"1. c #6A6256",
"2. c #6C645B",
"3. c #6F695B",
"4. c #72645C",
"5. c #726B5D",
"6. c #576362",
"7. c #596463",
"8. c #5C6866",
"9. c #5E6C6A",
"0. c #6A6762",
"q. c #606D6B",
"w. c #61706E",
"e. c #6E716E",
"r. c #7C7365",
"t. c #7C766C",
"y. c #677371",
"u. c #6B7574",
"i. c #697977",
"p. c #6D7D7B",
"a. c #727C7A",
"s. c #797D79",
"d. c #814942",
"f. c #844A43",
"g. c #894C45",
"h. c #8A4D45",
"j. c #8B4D45",
"k. c #844C4B",
"l. c #8C4E49",
"z. c #8F504B",
"x. c #815A4D",
"c. c #90514E",
"v. c #834D53",
"b. c #894E52",
"n. c #845056",
"m. c #8B5157",
"M. c #8C5155",
"N. c #8D5256",
"B. c #805F53",
"V. c #87505B",
"C. c #8B525A",
"Z. c #8E5359",
"A. c #935351",
"S. c #925352",
"D. c #945453",
"F. c #945454",
"G. c #955555",
"H. c #965659",
"J. c #94555A",
"K. c #98575A",
"L. c #97585E",
"P. c #9A595D",
"I. c #806255",
"U. c #896457",
"Y. c #8A6759",
"T. c #85685B",
"R. c #8B6B5D",
"E. c #9D5A61",
"W. c #827365",
"Q. c #847969",
"!. c #897B69",
"~. c #6E807D",
"^. c #7E837E",
"/. c #738481",
"(. c #788482",
"). c #798A87",
"_. c #7C8E8C",
"`. c #7E918E",
"'. c #808B89",
"]. c #839492",
"[. c #879996",
"{. c #899997",
"}. c #8B9C9A",
"|. c #8FA09E",
" X c #90A09E",
/* pixels */
"7 8 p p , f , y p p ; u < u p i < y , p p i < N A.j.N.g f j.l.C f o.p j.z.a ( | v j.A.y c | v j.m.9 ",
"p < v g 2 p y 9 g 9 7 g i 6 b d 8 p 9 y p 8 8 e D.l.N.g f d.N.V d.j.p N.Z.p j.j.y j.m.p j.j.f J.k.b ",
"g < y < 9 h p < y 8 h p i 8 y > s g y 2 y < w < V.v.' g h b n g l.G.d h ] c j.H.f b ' v j.K.9 v ] c ",
"7 9 p p > h , a p i < g < f p i < g > u p y < B K.j.k.h p j.l.V ( v.p j.G.p | *.c j.A.8 _ | v j.N.d ",
"p 8 h 9 w p y y v 8 7 c y 9 h 9 9 f e s g < 8 d A.j.N.b p ' Z.C } l.g { C.g j.z.e f.H.p j.l.g j.n.b ",
"p 7 h 8 s g 9 8 y < 9 v i y g < g p 8 8 i , a N A.j.Z.b h v d.g f.G.V ' J.f j.H.d ' { p g.H.9 X.N.p ",
"8 y g p 7 u < d p p , f , g p y 9 y : g p 9 < f A.j.N.b d j.l.( h  .c j.J.d _ ' h j.A.d v  .v j.K.d ",
"p 7 f 9 8 p p 8 g < 7 p a 9 f 2 y p y y g , 8 a b.] %.] p h m.g j.l.f ] v.f j.j.8 ' n.v j.l.p ' n.v ",
"9 : p 9 a v i 9 h 8 s p y < p 8 p h 9 s f < 7 w f.f.b.h g ' Z.f f.G.c ] d.d j.F.d ] Z.p j.P.p f.n i ",
"8 9 g y , v < s p p 7 y : f p y 7 h , g f a 7 w c.j.V.g p j.A.( _ n.f j.F.d ( ] h j.P.9 o.*.c j.D.9 ",
"p 8 g < s p p 8 h 8 p f i 9 p , g p a y f < 7 m D.h.A.p g v V.v j.F.V v n.p j.A.e ' v.' j.K.9 ' v.b ",
"9 < p 9 y h i 7 p 9 u g y 8 p 8 f f y 7 p 8 7 a c.h.Z.g f ] f.h j.A.V ] j.g j.H.d f.] h j.H.i d.f.p ",
"y 9 g p , d , f p p , 9 < g g y < y , f p y < a A.j.N.h f j.c._ p ] p l.G.a ' C b j.G.d h ' c l.H.p ",
"p , p a 9 p y 7 y 7 y p u , g 9 y p e 9 y < 7 w H.H.Z.f g ) ..f j.z.f *. .g j.z.e b o.c j.N.i *._ b ",
"y 8 p 9 7 b d 2 p 9 g v i 9 p < y b 9 8 p 8 w 7 b ' ( v v ] j.p l.L.d ] j.c z.P.c d.{ c l.H.d ] f.g ",
"y a p p , d , u p i , 9 ; g p y < 9 : p p 9 < 9 j.j.N.h d j.A.V d ] g j.G.d v ( g j.H.8 g b b j.G.p ",
"p < p 8 9 p s 7 s < 8 v i 7 p < a p 9 9 u , 9 N F.j.m.b f h *.g j.z.f ) *.g j.A.9 _ *.v j.c.d |  .b ",
"y 8 b 9 s v 8 7 p 9 8 b 9 p h 8 h g 7 9 p 7 9 d F.j.m.] h ] j.g ] H.( d.P.f l.G.f d.j.i d.P.f j.E.d ",
"y y g p , 9 7 g p p , y < g p i < 9 < g s 9 < B F.j.m.b a j.l._ h ) f j.G.d ( ' g j.H.d v ( v j.Z.f ",
"p , s < 9 p s , g ; 7 p u < i , a p a 7 u : 9 w v.v.( ' d f *.p l.z.f h ..g j.j.w c  .c j.A.i v  .v ",
"< , p y w h a u h 9 p g 8 < p 9 a v 6 g g 7 8 e z.j.N.g h { H.V ] P.g f.f.a { K.p j.L.d l.Z.p j.{ 9 ",
"9 a g p 7 g 8 s g y < 9 , h p y 9 g , g p y < w j.j.m.d f j.A.C | v.f j.G.d h b f j.K.e | v.h j.K.p ",
"p < g , d g g 6 g < g p i 8 p * g p p 9 s < 8 m D.j.m.p f h v.' j.G.K g b.c j.K.e ' *.] j.L.9 ( o.v ",
"7 < p y 6 h 9 7 p y 9 g 9 9 p 9 y g 8 8 p 9 < a D.j.m.g f j.j.f ] A.f f.j.d f.N.f j.j.p d.m.p j.j.e ",
"p 9 b g < y 2 g p p < y 8 u v i 2 y , g f a > e c.j.N.9 p j.N._ c ' p j.P.d ' b v j.K.i b b v K.L.c ",
"p , 9 8 9 p p : p < y p i < 9 < y p i 7 y > , w n.b.%.p e h | i j.z.f v ) g j.A.e v _ v j.A.9 ' v b ",
"9 8 p 9 < n y 7 p i y b 9 p p 8 8 h 8 9 p y 2 w w < , K d j.j.g { L.d { A.g N.H.v j.l.p l.m.p d.k.i ",
"i a g p < y < s p y < y 8 g p y 8 y , p b e R S # + $ H I v.P.V h { g g.G.f b ' p j.P.w v ] v j.H.v ",
"p , h < a p p 2 p < 7 v i , f < 9 p f * 5 ~ D # O O O = ~ ! 3 a z.j.p h  .c j.G.8 ) k.c j.F.9 | *.v ",
"7 9 h y a f 7 8 p y 8 v 8 a p 9 a h 9 D ~ U O # = = = O % =.I D &.H.g j.z.d k.N.c d.z.e ' J.c j.H.9 ",
"p y g p < y y f g y , p 8 g p i 7 s M ~ F O O $ @ $ % $ X = I ~ g { p j.G.d n n d j.H.p d.' v j.J.v ",
"i > p < a f p > g , y p y , y , h t I 3 O O $ & k ~ 5 $ + . $ S I &.&.v  .g l.c.w v  .v j.G.y b ( g ",
"< 7 p y , h 8 s h y 9 u < 9 p p D ! r 1 S = , j ^ H =.4 $ r D 2 D ! J z.z.t v b.g j.E.9 { v.g j.l.w ",
"i a h i 7 p 9 y v d < p 7 y v K ! j 1 j r 4 3 W S 2 G I 4 2 r r ; G R *.J.d ] { d j.P.p { k.p j.H.h ",
"p < y < s f f 7 y < f p i : 5 ~ D + $ % $ % D ! 2 $ r ^ 5 + $ $ + % ~ ! 1 f j.H.d ' _ n j.K.9 ( | v ",
"8 8 p i 7 p 7 9 p p < u d H ~ G G E =.=.=.=.k L I G ^ 3 G =.=.=.=.-.S U H P *._ h d.l.d b o.h j.l.9 ",
"p 8 b p < p w s g d , 8 G ~ U r r j F I I D r , E ^ k 2 j F I D S r r 5 =.^ K v p l.H.p { d.h l.J.v ",
"p < 8 < 6 p p , 9 , h p H 5 , ; = 1 1 2 1 1 ; = $ 1 = ; = 1 2 1 2 2 ; = = D P A.&.c v v j.A.8 h v b ",
"8 y p d , h 7 y p c r P 5 4 7.9.q.7.7.7.7.7.9./ E x H 9.9.7.7.7.6.6.q.w.7.= S $._ z.z.e  .o.c j.A.e ",
"p 9 v p w p w 8 g d ! r S Q ].}.].].`.`._.a.2.Y.#.B.` T.0.).`.`.`.].{.{.).1 S H G *.m.i { d.v l.H.) ",
"p * 9 < 7 f g * r ^ D ! :./ }. X X X X|.t.U.6 - % 1 @ % c R.'. X X X X X_.F >.r ! ! 2 C z.l.9 v g c ",
"7 9 g d 7 g 2 W ~ E Y 4.W./ ]. X X|. X].+.- # X X ;   @ O q 2.|. X X X X_.E W.T / ;.I G  .o.v j.G.8 ",
"p 9 v y 9 g 5 ~ L R Q W.Q./ }. X|.|.|.W.p o # + % ; # # @ @ ,.^. X X X X_.^ !.;.7.U I ! ' k._ d.H.b ",
"9 : 9 7 a d ! 5 / -.1 Q.!./ }. X|.|.|.;.p + # # 1 S % @ @ + @.s. X X X|._.^ Q.3.F R / D G &.C b v f ",
"7 7 g h S ~ S i.`.i.5 Q.!./ }. X X X X(.O.- @ . X 1   @ O q :.}. X X X X`.^ !.3.! ~.`.7.D I $.z.N.9 ",
"p 9 v J ^ H /.}.}.).<.r.W.Q }. X X X X}.5.x.6 @ X + X @ c Y.p. X X X X X`.L W.1.~.`.|.].y.I ~ *.v.d.",
"i , 5 :.H i.~././.~./ E 4.Q {. X|.|. X X{.e.;.Y.,.O.I.,.E a. X X|.|. X X_.3 5.k i.~././.~.7.E I 3 p ",
"1 M R D k ^ D E E k T k S Y 8.8.8.e.u.u.u.u.9.S l z 0 Q y.u.u.u.u.e.8.8.7.F D k L L ^ U L D L R I 5 ",
">.:.D r 0 L 0 L E 2 ^ 5.5.T 3.5.E ;.r.1.2.1.P 5.;.L 5.2.L 5.r.;.2.E -.5.-.2.3.3.F D E k D 2 k 5 R 1.",
"1 1 $ = # % @ = = + ; 3 3 = 2 3 ; & 3 3 2 ; & 3 2 $ 2 4 % ; 2 2 2 ; ; 3 2 2 2 4 % $ & & $ @ & & % 3 "
};
