/* XPM */
static char *c0a1d63d6086494284320f570903d800TzrmdhKh80nQRhrT[] = {
/* columns rows colors chars-per-pixel */
"32 32 153 2 ",
"   c #171616",
".  c #1C1B1C",
"X  c #211D1E",
"o  c #24201F",
"O  c #242121",
"+  c #282526",
"@  c #2D2A2A",
"#  c #3B2B27",
"$  c #322D2D",
"%  c #3F2F2A",
"&  c #3D2E34",
"*  c #363131",
"=  c #3A3535",
"-  c #3F3936",
";  c #3C373B",
":  c #3E3A3A",
">  c #43302B",
",  c #422F33",
"<  c #453135",
"1  c #4C3436",
"2  c #413A37",
"3  c #4E3638",
"4  c #433D3C",
"5  c #4E3B3C",
"6  c #523636",
"7  c #593736",
"8  c #543937",
"9  c #5A3A37",
"0  c #543738",
"q  c #583738",
"w  c #553A3A",
"e  c #5C3B39",
"r  c #633D3B",
"t  c #683F3D",
"y  c #49433F",
"u  c #54453E",
"i  c #59433E",
"p  c #67403F",
"a  c #6C413E",
"s  c #72433F",
"d  c #4A3E41",
"f  c #464142",
"g  c #4C4543",
"h  c #4F4A44",
"j  c #4B4648",
"k  c #4E4A4A",
"l  c #544545",
"z  c #534A45",
"x  c #504748",
"c  c #5B4748",
"v  c #534D4C",
"b  c #5B4C4B",
"n  c #54504C",
"m  c #59534E",
"M  c #4D5554",
"N  c #545452",
"B  c #5B5552",
"V  c #5A5B57",
"C  c #545D5C",
"Z  c #5A5E5C",
"A  c #654343",
"S  c #6C4241",
"D  c #624C43",
"F  c #694F46",
"G  c #6A4349",
"H  c #634D4F",
"J  c #6A4A4B",
"K  c #734442",
"L  c #714545",
"P  c #764646",
"I  c #794641",
"U  c #7A4641",
"Y  c #7D4742",
"T  c #7B4644",
"R  c #7B4846",
"E  c #7E4844",
"W  c #7F4844",
"Q  c #734649",
"!  c #77484D",
"~  c #784848",
"^  c #7B4848",
"/  c #7E4949",
"(  c #7A494E",
")  c #7D4A4C",
"_  c #695045",
"`  c #65554F",
"'  c #6D544A",
"]  c #72564C",
"[  c #664C50",
"{  c #6E4E51",
"}  c #704C50",
"|  c #7A4951",
" . c #7E4B50",
".. c #6C5E59",
"X. c #705053",
"o. c #5E625E",
"O. c #646057",
"+. c #62635D",
"@. c #6C635B",
"#. c #73655C",
"$. c #79695E",
"%. c #576362",
"&. c #5E6867",
"*. c #5E6D6B",
"=. c #626966",
"-. c #6E6C67",
";. c #646C6B",
":. c #736E68",
">. c #7F7262",
",. c #6D7371",
"<. c #6E7E7B",
"1. c #7C7772",
"2. c #707F7D",
"3. c #7C7D78",
"4. c #814944",
"5. c #834B46",
"6. c #844B44",
"7. c #864B45",
"8. c #894D47",
"9. c #834B49",
"0. c #864C49",
"q. c #814B4C",
"w. c #854C4D",
"e. c #8A4E49",
"r. c #8A4E4A",
"t. c #884E4E",
"y. c #8D4F4C",
"u. c #8B504F",
"i. c #8D504F",
"p. c #834D50",
"a. c #864E51",
"s. c #854F54",
"d. c #894F51",
"f. c #8A5053",
"g. c #8C5152",
"h. c #8D5253",
"j. c #925353",
"k. c #935456",
"l. c #807262",
"z. c #857969",
"x. c #73827F",
"c. c #768481",
"v. c #798280",
"b. c #768885",
"n. c #7C8D8B",
"m. c #808F8D",
"M. c #85918E",
"N. c #849693",
"B. c #879896",
"V. c #899A97",
"C. c #8C9C9A",
"Z. c #8FA09E",
"A. c #90A09E",
/* pixels */
"1 e 3 8 1 e < 6 3 e < 1 9 7 & w.y.S s r.t R W w.s K 6.^ s S y.S ",
"8 6 < r 1 6 0 9 1 3 6 q < 1 < | q.t a I s i.t T 5.w.s K 8.L I s ",
"1 e 3 e 1 e < e 0 9 < 6 9 8 < d.r.I a i.A / I w.P Q 5.^ P K r.S ",
"6 r 1 e 1 8 < p 6 q e 8 1 < 3 w.r.I t W s u.a a.5.q.s K 6.L 9.L ",
"6 e 3 7 3 e & 9 0 7 3 3 0 3 < q.9.I t t.K W s w.I K Y ^ Y K 5.L ",
"< 8 1 t 3 r 6 9 < 8 8 q q 3 < I 0.S a f.K g.s I I q.I ( 0.Q 5.r ",
"6 e 1 r 6 r 3 7 0 6 0 9 6 3 < 9.r.S a d.I f.a p.I ^ I ) 0.L W K ",
"3 9 3 e 1 9 6 9 3 7 0 7 3 6 < w.r.S a 6.K w.I 5.Y ) 5.I 5.L 6.a ",
"6 9 3 9 1 6 1 7 < 9 3 8 6 1 < a.k.S t / K 6.P ^ Y T I L 5.S q.K ",
"3 9 1 r 1 9 0 e 0 7 1 8 6 8 < a T a s 6.S a.s 6.R q.5.I / L 6.a ",
"6 9 1 9 3 7 , r 1 6 6 8 6 1 1 9.r.I r ) I 0.a ( 5./ K Q 6.K T K ",
"3 t 6 9 1 9 < e q e 6 1 8 8 < w.r.T a 8.a 9.I g.L T 5.T I P r.L ",
"3 0 < 9 1 9 , 9 < 3 0 7 1 < 1 !  .K e  .I r.t P 5.I S Q 8.K K S ",
"< 9 3 t 1 r 3 6 6 7 3 6 e 8 , W r.t s j.S s.I 0.a T 6.) / L r.S ",
"6 q < e 3 9 6 9 1 6 e 9 1 1 < w.r.p t q.Y g.t ) 5.q.K ^ 8.Q P K ",
"6 t 8 7 3 e 1 6 6 e < 1 q 7 & w.r.r s r.S W Y f.K K 6./ I K j.L ",
"6 3 < r < 6 6 e < 3 1 q < < & G Q e e ^ I t.t I 5.q.s S r.S I a ",
"6 e 3 7 1 e < 6 q 9 < 1 9 e k $ O g J k.p W Y d.K K 6.^ K s r.P ",
"3 r 1 e < 9 < t < 6 3 e ; v = O O O z f L t.a ^ W q.I I 5.L / S ",
"7 e 3 8 0 e < 7 q 9 1 5 v * . O @ O o v c T I w.I K 5.) W s r.P ",
"< 6 < r 1 r 1 7 < 6 w x = @ @ z v = + = f [ P T I / I ! 5.L W r ",
"6 r 1 9 3 t < 7 1 A v = : = 4 g : v = : = g X. .s I 5.) 5.K r.P ",
"1 7 1 q 1 9 1 q d v g z z z g k g g g z z z v g ^ Q Y P I S 5.a ",
"7 r 1 9 3 q 1 5 v g : 4 g g = y z = 4 g 4 4 = b c K W ^ 5.a 0.P ",
"1 9 < r 1 9 8 l : C %.C C C C z u C C C C C %.M g } 5.I ^ S 5.S ",
"7 e < 7 1 e v g N V.V.B.N.3.` _ F ' :.m.N.V.C.<.g k { G 5.s 9.P ",
"< 9 3 e d m n #.+.V.Z.A.M.i O   @ X > -.Z.A.A.c.$.N B k ! L 8.A ",
"3 8 1 w j N j z.+.C.A.A.#.# X @ = O . ] M.A.A.c.l.O.n k A Q W K ",
"< e i v &.n.M z.+.C.A.A.v.8 O   @ . % @.C.A.A.c.>.O.<.2.k H r.S ",
"6 w B =.n.n.*.@.V C.A.A.C.1.D D i D ..M.A.A.A.x.#.o.b.n.<.B H a ",
"f v g m z m z z n =.&.,.,.,.o.z i N ;.,.,.;.=.Z v z z m h g v g ",
"g * $ * $ = = z 2 h 4 g g g - g 2 h 2 z g 2 g y h y * = $ $ * f "
};
